<?xml version="1.0" encoding="UTF-8"?>
<svg id="Layer_2" data-name="Layer 2" xmlns="http://www.w3.org/2000/svg" viewBox="0 0 49.32 49.32">
  <defs>
    <style>
      .cls-1 {
        fill: #003e9a;
      }

      .cls-2 {
        fill: #fff;
      }
    </style>
  </defs>
  <g id="Layer_1-2" data-name="Layer 1">
    <g>
      <path class="cls-1" d="M49.32,24.61c.03,13.62-10.99,24.68-24.61,24.71S.03,38.33,0,24.71,10.99,.03,24.61,0s24.68,10.99,24.71,24.61"/>
      <path class="cls-2" d="M22.06,36.86c0-.06,0-.12,0-.18,0-3.61,0-7.21,0-10.82v-.14h-3.6q-.16,0-.16-.15c0-1.35,0-2.7,0-4.05,0-.12,.04-.16,.16-.15,1.15,0,2.3,0,3.45,0h.16v-.13c0-1.12,0-2.24,0-3.36,.01-.9,.19-1.78,.58-2.59,.53-1.11,1.37-1.91,2.51-2.38,.76-.32,1.56-.46,2.38-.45,.94,.02,1.88,.06,2.82,.09,.17,0,.35,.04,.52,.04,.1,0,.13,.04,.13,.14,0,.56,0,1.12,0,1.68,0,.66,0,1.32,0,1.98,0,.11-.03,.15-.15,.15-.72,0-1.43-.01-2.14,0-.32,0-.65,.04-.97,.11-.61,.13-.97,.54-1.1,1.15-.05,.24-.08,.5-.08,.75,0,.91,0,1.83,0,2.74,0,.03,0,.06,0,.1h4.11c.17,0,.17,0,.15,.17-.09,.72-.19,1.44-.28,2.16-.08,.6-.15,1.2-.22,1.8-.03,.23-.02,.23-.25,.23h-3.51v10.87c0,.09,0,.17,0,.26h-4.53Z"/>
    </g>
  </g>
</svg>