<?xml version="1.0" encoding="UTF-8"?>
<svg id="Layer_2" data-name="Layer 2" xmlns="http://www.w3.org/2000/svg" viewBox="0 0 42.36 42.36">
  <defs>
    <style>
      .cls-1 {
        fill: #fff;
      }

      .cls-2 {
        fill: #214097;
      }
    </style>
  </defs>
  <g id="Layer_1-2" data-name="Layer 1">
    <g>
      <path class="cls-2" d="M42.36,21.18c0,11.7-9.48,21.18-21.18,21.18S0,32.88,0,21.18,9.48,0,21.18,0s21.18,9.48,21.18,21.18"/>
      <path class="cls-1" d="M21.18,11.84c-2.97,0-5.55,2.04-6.23,4.93v6.68c.29,.75,.67,1.47,1.12,2.14,.11,.04,.22,.08,.34,.11,1.04,.33,2.11,.52,3.21,.58,.12-.24,.37-.41,.65-.41h1.58c.41,0,.74,.35,.74,.78v.2c0,.43-.33,.78-.74,.78h-1.58c-.32,0-.59-.22-.69-.52-.88-.05-1.74-.18-2.59-.39,.03,.03,.06,.07,.09,.1,1.12,1.16,2.49,1.74,4.1,1.74s2.98-.58,4.1-1.74c.93-.97,1.64-2.12,2.13-3.37v-6.68c-.68-2.88-3.25-4.93-6.22-4.93"/>
      <path class="cls-1" d="M25.78,27.86c-1.25,1.3-2.8,1.96-4.6,1.96s-3.35-.66-4.6-1.96c.28,1.58-.05,3.2-.91,4.54,1.68,.77,3.55,1.2,5.51,1.2s3.83-.43,5.51-1.2c-.87-1.34-1.2-2.96-.91-4.54"/>
      <path class="cls-1" d="M31.5,16.53h-1.08l-.1-.45c-.96-4.28-4.75-7.32-9.14-7.32s-8.18,3.04-9.14,7.32l-.1,.45h-1.08c-.4,0-.73,.33-.73,.74v5.43c0,.4,.33,.73,.73,.73h2.68v-7.01c.81-3.58,3.98-6.12,7.64-6.12s6.84,2.54,7.64,6.12v.04s0,6.97,0,6.97h2.68c.4,0,.73-.33,.73-.73v-5.43c0-.4-.33-.74-.73-.74"/>
    </g>
  </g>
</svg>