<?xml version="1.0" encoding="UTF-8"?>
<svg id="Layer_2" data-name="Layer 2" xmlns="http://www.w3.org/2000/svg" viewBox="0 0 42.36 42.36">
  <defs>
    <style>
      .cls-1 {
        fill: #fff;
      }

      .cls-2 {
        fill: #214097;
      }
    </style>
  </defs>
  <g id="Layer_1-2" data-name="Layer 1">
    <g>
      <path class="cls-2" d="M42.36,21.18c0,11.7-9.48,21.18-21.18,21.18S0,32.88,0,21.18,9.48,0,21.18,0s21.18,9.48,21.18,21.18"/>
      <path class="cls-1" d="M16.72,25.44h.31s2.5,.76,2.5,.76c0,0-.02,.79,3.41-3.28,3.42-4.07,2.86-5.36,2.86-5.36l-1.7-2.23-.1-.39,2.95-6.48,.19-.05,3.33,2.21,.34,3.55s-1.13,5.12-4.79,10.12c-3.66,5-5.89,6.45-5.89,6.45l-4.52,2.23-4.05-2.69,.03-.25,5.13-4.59Z"/>
      <path class="cls-1" d="M16.66,25.08c.21,0,.41-.02,.61,.05,.28,.09,.57,.17,.85,.26,.51,.16,1.02,.31,1.52,.47,.16,.05,.23,.22,.23,.38,0-.18-.11-.32-.25-.34,0,0-.12,0-.06,0,.05,0,.01-.03-.05,.02,.02-.02,.06-.03,.09-.04,.03-.01,.1-.06-.02,.01,.02-.01,.04-.03,.06-.04,.05-.04,.1-.07,.16-.12,.37-.29,.7-.64,1.03-.98,.69-.73,1.35-1.49,1.98-2.27,.96-1.16,1.97-2.44,2.48-3.88,.03-.09,.06-.18,.09-.27,0-.02,.04-.16,.02-.06,0-.04,.02-.08,.02-.11,.02-.12,.03-.24,.04-.36,0-.11,.02,.08,0-.04,0-.03,0-.06-.01-.09,0-.11,.03,.06,0,.01,.07,.14,.05,.08,0,.03-.05-.06-.1-.13-.15-.19l-.5-.66c-.32-.42-.63-.83-.95-1.25-.17-.22-.3-.62-.19-.89,.12-.29,.26-.56,.39-.85,.84-1.84,1.65-3.69,2.52-5.52,.09-.18,.23-.27,.42-.31,.19-.04,.31,.03,.46,.12,.4,.26,.79,.53,1.19,.79,.5,.33,.99,.66,1.49,.99,.22,.15,.63,.32,.68,.62,.07,.4,.08,.81,.12,1.21,.06,.6,.11,1.19,.17,1.79,.02,.21,.07,.45,.04,.66-.04,.27-.14,.56-.21,.82-.92,3.2-2.41,6.28-4.33,9.01-1.16,1.65-2.43,3.24-3.82,4.7-.67,.71-1.37,1.42-2.15,2.02-.31,.24-.64,.4-.99,.57-1.04,.52-2.09,1.03-3.13,1.55-.25,.12-.51,.28-.77,.38-.29,.11-.65-.24-.88-.39-.96-.64-1.92-1.28-2.88-1.91-.21-.14-.43-.28-.64-.42-.11-.07-.16-.21-.15-.33,.02-.21,.04-.38,.2-.53,.09-.09,.19-.17,.29-.26,.4-.35,.79-.71,1.19-1.06,.97-.87,1.95-1.74,2.92-2.61,.23-.21,.47-.42,.7-.62,.35-.31,.8,.25,.45,.56-1.5,1.34-3,2.68-4.5,4.02-.21,.19-.42,.38-.63,.57,.04-.08,.09-.16,.13-.24,0,.08-.02,.17-.03,.25-.05-.11-.1-.22-.15-.33,1.18,.78,2.36,1.56,3.54,2.35,.17,.11,.34,.23,.51,.34-.12-.01-.24-.03-.35-.04,1.4-.69,2.79-1.38,4.18-2.06,.09-.05,.19-.1,.29-.14,.11-.05-.04,.04-.02,.02,.07-.08,.19-.14,.27-.2,.56-.44,1.08-.93,1.59-1.44,1-1.01,1.93-2.1,2.8-3.22,1.15-1.46,2.22-2.97,3.12-4.6,1.13-2.05,2.06-4.25,2.67-6.52,.03-.1,.05-.2,.08-.29-.04,.16,0-.05,.01-.05-.02,0,.02,.13,0,.07-.01-.04,0-.09-.01-.13-.02-.16-.03-.32-.05-.48-.09-.9-.17-1.81-.26-2.71,0-.07-.01-.13-.02-.2,.05,.08,.1,.16,.15,.24-1.11-.74-2.22-1.48-3.33-2.21,.09,.02,.18,.04,.27,.06-.06,.02-.13,.03-.19,.05,.09-.08,.19-.15,.28-.23-.9,1.98-1.81,3.96-2.71,5.94-.07,.15-.13,.31-.21,.46,0,.02-.02,.06-.03,.07,.22-.17-.03-.23,.03-.14,.02,.03,.02,.1,.03,.13,.02,.07,.04,.15,.05,.22-.03-.06-.05-.12-.08-.17,.56,.74,1.18,1.46,1.7,2.23,.26,.37,.07,.99-.04,1.37-.18,.57-.46,1.11-.76,1.62-.51,.87-1.11,1.67-1.75,2.45-.68,.84-1.39,1.66-2.14,2.45-.36,.39-.73,.78-1.16,1.1-.19,.15-.43,.33-.69,.29-.24-.03-.38-.23-.37-.46l.23,.38c-.48-.15-.97-.3-1.46-.45l-.84-.26c-.06-.02-.14-.03-.19-.06,.04,.02,.25,.01,.07,.02-.07,0-.13,0-.2,0-.2,0-.38-.1-.41-.31-.03-.18,.11-.4,.31-.41"/>
    </g>
  </g>
</svg>