<?xml version="1.0" encoding="UTF-8"?>
<svg id="Layer_2" data-name="Layer 2" xmlns="http://www.w3.org/2000/svg" viewBox="0 0 49.32 49.32">
  <defs>
    <style>
      .cls-1 {
        fill: #003e9a;
      }

      .cls-2 {
        fill: #fff;
      }
    </style>
  </defs>
  <g id="Layer_1-2" data-name="Layer 1">
    <g>
      <path class="cls-1" d="M49.32,24.61c.03,13.62-10.99,24.68-24.61,24.71S.03,38.33,0,24.71,10.99,.03,24.61,0s24.68,10.99,24.71,24.61"/>
      <path class="cls-2" d="M38.4,17.2c-.97,.43-2.01,.72-3.1,.85,1.12-.67,1.97-1.73,2.38-2.99-1.04,.62-2.2,1.07-3.43,1.31-.98-1.05-2.39-1.71-3.94-1.71-2.98,0-5.4,2.42-5.4,5.4,0,.42,.05,.84,.14,1.23-4.49-.23-8.47-2.38-11.13-5.64-.47,.8-.73,1.73-.73,2.72,0,1.87,.95,3.53,2.4,4.5-.89-.03-1.72-.27-2.45-.68,0,.02,0,.05,0,.07,0,2.62,1.86,4.8,4.33,5.3-.45,.12-.93,.19-1.42,.19-.35,0-.69-.03-1.02-.1,.69,2.15,2.68,3.71,5.05,3.75-1.85,1.45-4.18,2.31-6.71,2.31-.44,0-.87-.02-1.29-.07,2.39,1.53,5.23,2.43,8.28,2.43,9.94,0,15.37-8.23,15.37-15.37,0-.23,0-.47-.01-.7,1.05-.76,1.97-1.71,2.7-2.8"/>
    </g>
  </g>
</svg>