<?xml version="1.0" encoding="UTF-8"?>
<svg id="Layer_2" data-name="Layer 2" xmlns="http://www.w3.org/2000/svg" viewBox="0 0 49.32 49.32">
  <defs>
    <style>
      .cls-1 {
        fill: #003e9a;
      }

      .cls-2 {
        fill: #fff;
      }
    </style>
  </defs>
  <g id="Layer_1-2" data-name="Layer 1">
    <g>
      <path class="cls-1" d="M49.32,24.61c.03,13.62-10.99,24.68-24.61,24.71S.03,38.33,0,24.71,10.99,.03,24.61,0s24.68,10.99,24.71,24.61"/>
      <path class="cls-2" d="M29.43,36.53h-9.54c-3.74,0-6.78-3.04-6.78-6.78v-10.18c0-3.74,3.04-6.78,6.78-6.78h9.54c3.74,0,6.78,3.04,6.78,6.78v10.18c0,3.74-3.04,6.78-6.78,6.78M19.89,14.53c-2.78,0-5.04,2.26-5.04,5.04v10.18c0,2.78,2.26,5.04,5.04,5.04h9.54c2.78,0,5.04-2.26,5.04-5.04v-10.18c0-2.78-2.26-5.04-5.04-5.04h-9.54Z"/>
      <path class="cls-2" d="M24.66,30.93c-3.48,0-6.31-2.83-6.31-6.31,0-1.71,.7-3.38,1.93-4.58,1.2-1.16,2.76-1.78,4.4-1.73,1.96,.06,3.59,.72,4.71,1.91,1.06,1.13,1.6,2.66,1.56,4.41-.04,1.68-.7,3.26-1.87,4.43-1.18,1.19-2.76,1.85-4.44,1.85m-.14-10.49c-1.02,0-1.99,.4-2.75,1.13-.82,.8-1.29,1.91-1.29,3.05,0,2.3,1.88,4.18,4.18,4.18s4.13-1.85,4.18-4.21c.05-2.53-1.52-4.08-4.21-4.16-.04,0-.08,0-.11,0"/>
    </g>
    <path class="cls-2" d="M32.59,18.14c0,.81-.66,1.47-1.47,1.47s-1.47-.66-1.47-1.47,.66-1.47,1.47-1.47,1.47,.66,1.47,1.47"/>
  </g>
</svg>