<?xml version="1.0" encoding="UTF-8"?>
<svg id="Layer_2" data-name="Layer 2" xmlns="http://www.w3.org/2000/svg" viewBox="0 0 42.36 42.36">
  <defs>
    <style>
      .cls-1 {
        fill: #fff;
      }

      .cls-2 {
        fill: #214097;
      }
    </style>
  </defs>
  <g id="Layer_1-2" data-name="Layer 1">
    <g>
      <path class="cls-2" d="M42.36,21.18c0,11.7-9.48,21.18-21.18,21.18S0,32.88,0,21.18,9.48,0,21.18,0s21.18,9.48,21.18,21.18"/>
      <path class="cls-1" d="M9.75,31.92c.17-.64,.34-1.26,.51-1.87,.35-1.27,.7-2.53,1.03-3.8,.03-.12,.02-.29-.04-.4-3.09-5.63-.93-12.71,4.79-15.63,6.31-3.22,13.99,.02,16.07,6.79,1.84,5.98-1.54,12.38-7.52,14.21-2.97,.91-5.85,.63-8.63-.77-.11-.05-.26-.07-.38-.04-1.86,.48-3.71,.97-5.57,1.45-.07,.02-.15,.03-.26,.06m2.73-2.69c1.14-.3,2.23-.58,3.33-.88,.19-.05,.33-.02,.49,.07,2.11,1.26,4.38,1.68,6.78,1.2,5.1-1.01,8.4-5.95,7.44-11.06-.96-5.08-5.94-8.48-11.03-7.51-6.37,1.21-9.69,8.31-6.48,13.94,.33,.58,.4,1.06,.19,1.68-.28,.83-.47,1.68-.71,2.56"/>
      <path class="cls-1" d="M17.55,15.11c.48-.12,.72,.17,.89,.61,.26,.67,.54,1.33,.82,1.98,.1,.23,.09,.43-.06,.63-.22,.3-.44,.61-.68,.9-.16,.19-.17,.37-.05,.58,.93,1.56,2.22,2.69,3.92,3.36,.23,.09,.42,.05,.57-.15,.28-.35,.56-.69,.84-1.04,.2-.26,.32-.32,.61-.19,.8,.37,1.6,.75,2.39,1.15,.1,.05,.18,.23,.18,.35-.02,1.21-.38,1.79-1.67,2.34-.73,.31-1.49,.23-2.25,.02-2.74-.76-4.76-2.49-6.38-4.76-.5-.71-.95-1.43-1.15-2.29-.28-1.23,.03-2.3,.93-3.19,.29-.29,.65-.35,1.08-.3"/>
    </g>
  </g>
</svg>