<?xml version="1.0" encoding="UTF-8"?>
<svg id="Layer_2" data-name="Layer 2" xmlns="http://www.w3.org/2000/svg" viewBox="0 0 243.96 64.99">
  <defs>
    <style>
      .cls-1 {
        fill: #c5c6c7;
      }
    </style>
  </defs>
  <g id="Layer_1-2" data-name="Layer 1">
    <g>
      <path class="cls-1" d="M5.14,37.65c-.64,0-1.24-.12-1.79-.38-.56-.25-1.05-.61-1.47-1.06-.42-.46-.76-.98-.99-1.58-.24-.6-.36-1.25-.36-1.96,0-.67,.12-1.29,.36-1.88,.24-.59,.58-1.11,1-1.56,.43-.45,.92-.8,1.5-1.05,.58-.25,1.2-.38,1.86-.38,.92,0,1.71,.19,2.36,.57,.65,.38,1.14,.9,1.47,1.55l-1.41,1.04c-.24-.48-.58-.85-1.03-1.11-.45-.26-.93-.38-1.45-.38-.41,0-.79,.09-1.13,.26-.34,.17-.64,.41-.88,.71-.25,.3-.43,.65-.56,1.04-.13,.39-.19,.81-.19,1.25,0,.47,.07,.89,.21,1.29,.14,.39,.34,.74,.6,1.03,.26,.3,.56,.53,.91,.69,.35,.16,.73,.25,1.15,.25,.5,0,.98-.13,1.42-.38,.45-.26,.87-.63,1.26-1.12v1.88c-.81,.87-1.76,1.3-2.85,1.3m2.71-3.68h-1.96v-1.38h3.52v5h-1.56v-3.61Z"/>
      <path class="cls-1" d="M21.34,37.65c-.71,0-1.35-.14-1.93-.41-.58-.27-1.07-.65-1.49-1.12-.42-.47-.74-1-.97-1.59-.23-.59-.34-1.19-.34-1.81s.12-1.27,.36-1.85c.24-.59,.58-1.11,1-1.57,.42-.46,.93-.83,1.51-1.1,.58-.27,1.22-.4,1.9-.4s1.34,.14,1.92,.42c.58,.28,1.07,.66,1.48,1.14,.41,.47,.73,1,.95,1.59,.22,.58,.34,1.19,.34,1.81s-.12,1.25-.35,1.84c-.23,.59-.56,1.11-.99,1.57-.42,.46-.93,.82-1.51,1.09-.58,.26-1.21,.4-1.9,.4m-2.82-4.93c0,.42,.06,.83,.19,1.22,.13,.39,.31,.74,.55,1.05,.24,.31,.54,.55,.89,.73,.35,.18,.75,.27,1.2,.27s.87-.09,1.22-.28c.35-.19,.64-.44,.88-.75s.42-.66,.54-1.05c.12-.39,.18-.78,.18-1.18,0-.42-.06-.82-.19-1.21-.13-.39-.32-.73-.56-1.04-.25-.3-.54-.55-.89-.73-.35-.18-.74-.27-1.19-.27s-.85,.09-1.2,.28c-.35,.19-.65,.43-.89,.74s-.42,.65-.55,1.04c-.12,.39-.18,.78-.18,1.18"/>
      <path class="cls-1" d="M41.52,35.1c0,.54-.14,.99-.42,1.36-.28,.37-.66,.65-1.14,.84-.48,.19-1,.29-1.57,.29h-4.69v-9.72h5.2c.46,0,.85,.12,1.18,.36,.33,.24,.59,.55,.77,.93s.27,.77,.27,1.18c0,.46-.12,.91-.36,1.32s-.58,.73-1.04,.94c.56,.17,1,.46,1.32,.89,.32,.43,.49,.96,.49,1.6m-5.94-5.61v2.45h2.52c.21,0,.4-.05,.58-.15,.17-.1,.31-.24,.42-.42,.1-.18,.16-.4,.16-.64s-.05-.47-.14-.65c-.1-.18-.22-.32-.38-.42-.16-.1-.34-.16-.54-.16h-2.6Zm4.04,5.24c0-.25-.05-.47-.15-.66-.1-.2-.23-.35-.4-.47s-.36-.18-.58-.18h-2.9v2.57h2.81c.23,0,.44-.06,.62-.17,.19-.11,.33-.27,.45-.46,.11-.19,.16-.4,.16-.63"/>
      <rect class="cls-1" x="49.16" y="27.87" width="1.89" height="9.72"/>
      <polygon class="cls-1" points="65.98 35.93 65.98 37.59 59.24 37.59 59.24 27.87 65.86 27.87 65.86 29.52 61.12 29.52 61.12 31.86 65.2 31.86 65.2 33.4 61.12 33.4 61.12 35.93 65.98 35.93"/>
      <path class="cls-1" d="M73.62,37.59v-9.72h4.31c.44,0,.85,.09,1.22,.27,.38,.18,.71,.43,.99,.74,.28,.31,.49,.66,.64,1.04,.15,.38,.23,.78,.23,1.18s-.07,.8-.21,1.18c-.14,.37-.34,.7-.61,.99-.27,.29-.58,.51-.93,.66l2.22,3.65h-2.08l-2-3.26h-1.89v3.26h-1.89Zm1.89-4.91h2.37c.24,0,.45-.07,.63-.21,.18-.14,.33-.33,.44-.57,.11-.24,.16-.5,.16-.79s-.06-.57-.19-.81c-.13-.24-.29-.42-.48-.56-.19-.14-.4-.2-.63-.2h-2.3v3.15Z"/>
      <polygon class="cls-1" points="90.77 31.34 90.77 37.59 88.88 37.59 88.88 27.87 90.4 27.87 95.41 34.27 95.41 27.88 97.29 27.88 97.29 37.59 95.73 37.59 90.77 31.34"/>
      <path class="cls-1" d="M109.63,37.65c-.71,0-1.35-.14-1.93-.41-.58-.27-1.07-.65-1.49-1.12-.42-.47-.74-1-.97-1.59-.23-.59-.34-1.19-.34-1.81s.12-1.27,.36-1.85c.24-.59,.58-1.11,1-1.57,.42-.46,.93-.83,1.51-1.1,.58-.27,1.22-.4,1.9-.4s1.34,.14,1.92,.42c.58,.28,1.07,.66,1.48,1.14,.41,.47,.73,1,.95,1.59,.22,.58,.34,1.19,.34,1.81s-.12,1.25-.35,1.84c-.23,.59-.56,1.11-.99,1.57-.42,.46-.93,.82-1.51,1.09-.58,.26-1.21,.4-1.9,.4m-2.82-4.93c0,.42,.06,.83,.19,1.22,.13,.39,.31,.74,.55,1.05,.24,.31,.54,.55,.89,.73,.35,.18,.75,.27,1.2,.27s.87-.09,1.22-.28c.35-.19,.64-.44,.88-.75s.42-.66,.54-1.05c.12-.39,.18-.78,.18-1.18,0-.42-.06-.82-.19-1.21-.13-.39-.32-.73-.56-1.04-.25-.3-.54-.55-.89-.73-.35-.18-.74-.27-1.19-.27s-.85,.09-1.2,.28c-.35,.19-.65,.43-.89,.74s-.42,.65-.55,1.04c-.12,.39-.18,.78-.18,1.18"/>
      <polygon class="cls-1" points="133.33 31.34 133.33 37.59 131.44 37.59 131.44 27.87 132.96 27.87 137.97 34.27 137.97 27.88 139.84 27.88 139.84 37.59 138.28 37.59 133.33 31.34"/>
      <path class="cls-1" d="M150.68,27.87h1.92l3.57,9.72h-1.94l-.81-2.42h-3.57l-.81,2.42h-1.94l3.59-9.72Zm2.3,5.97l-1.34-4.01-1.34,4.01h2.68Z"/>
      <path class="cls-1" d="M162.44,32.64c0-.6,.11-1.19,.32-1.76,.21-.57,.53-1.09,.94-1.55,.41-.47,.92-.84,1.51-1.12,.59-.28,1.26-.42,2.01-.42,.89,0,1.67,.2,2.32,.59,.65,.39,1.13,.9,1.44,1.53l-1.44,1c-.17-.36-.38-.65-.64-.86-.27-.21-.55-.36-.86-.45-.31-.09-.6-.14-.88-.14-.47,0-.89,.1-1.24,.29-.35,.19-.64,.44-.88,.75-.23,.31-.41,.66-.53,1.04-.12,.38-.18,.77-.18,1.16,0,.42,.07,.83,.21,1.23,.14,.4,.33,.75,.58,1.05,.25,.31,.55,.55,.9,.73,.35,.18,.74,.27,1.16,.27,.29,0,.59-.05,.9-.15,.31-.1,.6-.26,.86-.48,.26-.22,.48-.51,.64-.86l1.53,.9c-.2,.48-.52,.9-.95,1.23-.43,.34-.92,.59-1.45,.77-.53,.17-1.07,.26-1.59,.26-.69,0-1.33-.14-1.9-.43-.57-.29-1.07-.67-1.49-1.15-.42-.48-.75-1.02-.98-1.61-.23-.6-.35-1.2-.35-1.81"/>
      <rect class="cls-1" x="178.58" y="27.87" width="1.89" height="9.72"/>
      <path class="cls-1" d="M192.8,37.65c-.71,0-1.36-.14-1.93-.41-.57-.27-1.07-.65-1.49-1.12-.42-.47-.74-1-.97-1.59-.23-.59-.34-1.19-.34-1.81s.12-1.27,.36-1.85c.24-.59,.58-1.11,1-1.57,.42-.46,.93-.83,1.51-1.1,.58-.27,1.22-.4,1.9-.4s1.34,.14,1.92,.42c.58,.28,1.07,.66,1.48,1.14,.41,.47,.73,1,.95,1.59,.22,.58,.33,1.19,.33,1.81s-.12,1.25-.35,1.84c-.23,.59-.56,1.11-.98,1.57-.42,.46-.93,.82-1.51,1.09-.58,.26-1.21,.4-1.9,.4m-2.82-4.93c0,.42,.06,.83,.19,1.22,.13,.39,.31,.74,.55,1.05,.24,.31,.54,.55,.89,.73,.35,.18,.75,.27,1.2,.27s.87-.09,1.22-.28c.35-.19,.64-.44,.88-.75,.24-.31,.42-.66,.54-1.05,.12-.39,.18-.78,.18-1.18,0-.42-.06-.82-.19-1.21s-.31-.73-.56-1.04c-.25-.3-.54-.55-.89-.73-.35-.18-.74-.27-1.19-.27s-.85,.09-1.2,.28c-.35,.19-.65,.43-.89,.74-.24,.31-.42,.65-.55,1.04s-.18,.78-.18,1.18"/>
      <polygon class="cls-1" points="207.05 31.34 207.05 37.59 205.16 37.59 205.16 27.87 206.68 27.87 211.69 34.27 211.69 27.88 213.56 27.88 213.56 37.59 212 37.59 207.05 31.34"/>
      <path class="cls-1" d="M224.4,27.87h1.92l3.57,9.72h-1.94l-.81-2.42h-3.57l-.81,2.42h-1.94l3.59-9.72Zm2.3,5.97l-1.34-4.01-1.34,4.01h2.68Z"/>
      <polygon class="cls-1" points="237.12 37.59 237.12 27.87 239.01 27.87 239.01 35.93 243.96 35.93 243.96 37.59 237.12 37.59"/>
      <path class="cls-1" d="M18.26,55.69c0-1.08,.2-2.15,.59-3.2,.4-1.05,.99-2.02,1.77-2.89,.79-.87,1.73-1.56,2.85-2.08,1.11-.52,2.37-.77,3.78-.77,1.69,0,3.15,.36,4.39,1.09,1.24,.73,2.17,1.67,2.8,2.84l-3.22,2.26c-.25-.64-.6-1.14-1.05-1.51-.45-.36-.94-.62-1.47-.76-.53-.14-1.05-.22-1.56-.22-.78,0-1.46,.16-2.05,.47-.59,.31-1.08,.73-1.47,1.25-.39,.52-.68,1.11-.87,1.75-.2,.64-.29,1.27-.29,1.9,0,.73,.11,1.42,.34,2.08,.23,.66,.55,1.24,.96,1.75,.41,.51,.91,.91,1.49,1.2,.58,.3,1.24,.44,1.96,.44,.51,0,1.02-.08,1.54-.24,.52-.16,1.01-.43,1.46-.8,.45-.37,.79-.86,1.03-1.47l3.42,2.03c-.37,.88-.96,1.63-1.77,2.26s-1.72,1.1-2.74,1.43c-1.01,.33-2.03,.49-3.04,.49-1.3,0-2.49-.27-3.57-.8-1.08-.53-2.02-1.24-2.81-2.13-.79-.89-1.41-1.88-1.84-2.99-.43-1.11-.65-2.23-.65-3.38"/>
      <path class="cls-1" d="M44.33,64.99c-1.32,0-2.52-.26-3.61-.77-1.09-.52-2.03-1.21-2.83-2.08s-1.4-1.85-1.82-2.94c-.42-1.09-.63-2.22-.63-3.38s.22-2.34,.67-3.42c.45-1.08,1.07-2.05,1.88-2.9,.8-.85,1.75-1.52,2.85-2.01,1.1-.49,2.3-.74,3.6-.74s2.55,.26,3.64,.77,2.03,1.21,2.81,2.09c.78,.88,1.39,1.86,1.81,2.95,.42,1.09,.63,2.2,.63,3.33,0,1.2-.22,2.34-.66,3.42-.44,1.08-1.06,2.05-1.88,2.9-.81,.85-1.76,1.53-2.85,2.03-1.09,.5-2.29,.75-3.61,.75m-4.69-9.12c0,.69,.1,1.36,.32,2.01,.21,.65,.52,1.23,.91,1.74,.4,.51,.89,.91,1.47,1.22,.58,.3,1.27,.46,2.06,.46s1.46-.16,2.05-.47c.59-.31,1.08-.73,1.47-1.27,.39-.53,.68-1.12,.87-1.76,.19-.64,.29-1.3,.29-1.98s-.11-1.36-.32-2-.52-1.22-.91-1.74c-.4-.51-.89-.92-1.48-1.2-.59-.29-1.26-.43-2-.43-.79,0-1.49,.15-2.08,.46-.59,.3-1.08,.72-1.47,1.24-.39,.52-.68,1.1-.89,1.74-.2,.63-.3,1.3-.3,1.99"/>
      <polygon class="cls-1" points="59.88 54.55 59.88 64.86 55.73 64.86 55.73 46.87 59.02 46.87 67.35 57.46 67.35 46.87 71.48 46.87 71.48 64.86 68.11 64.86 59.88 54.55"/>
      <path class="cls-1" d="M80.86,64.86v-17.99h7.68c.86,0,1.65,.18,2.36,.53,.71,.35,1.33,.82,1.86,1.39,.53,.58,.94,1.23,1.23,1.95,.29,.73,.43,1.47,.43,2.23,0,1.01-.24,1.99-.72,2.93-.48,.94-1.15,1.7-2,2.28-.85,.58-1.85,.87-3,.87h-3.67v5.8h-4.15Zm4.15-9.45h3.39c.32,0,.61-.09,.87-.27,.26-.18,.48-.45,.65-.82,.17-.37,.25-.82,.25-1.34,0-.57-.09-1.04-.28-1.41-.19-.36-.43-.63-.72-.8-.3-.17-.6-.25-.92-.25h-3.24v4.89Z"/>
      <path class="cls-1" d="M99.85,46.87h4.46l6.23,17.99h-4.26l-1.22-4.03h-5.94l-1.23,4.03h-4.26l6.21-17.99Zm4.36,11.12l-2.1-6.94-2.11,6.94h4.22Z"/>
      <path class="cls-1" d="M122.86,52.14c-.05-.05-.23-.17-.55-.37-.31-.19-.69-.39-1.14-.6-.45-.2-.94-.38-1.48-.52-.54-.14-1.08-.21-1.62-.21-.71,0-1.26,.13-1.65,.38-.39,.25-.58,.62-.58,1.1,0,.39,.15,.7,.44,.94,.29,.24,.72,.45,1.28,.63,.56,.18,1.24,.37,2.05,.59,1.15,.32,2.15,.69,2.99,1.12,.84,.43,1.49,.98,1.94,1.64,.45,.67,.67,1.56,.67,2.66,0,.99-.18,1.84-.54,2.55-.36,.71-.87,1.28-1.52,1.71-.65,.43-1.38,.74-2.18,.93-.8,.19-1.63,.29-2.5,.29s-1.78-.09-2.7-.28c-.92-.19-1.8-.45-2.65-.78-.84-.34-1.62-.73-2.33-1.17l1.8-3.65c.08,.1,.31,.26,.68,.48,.37,.22,.83,.45,1.38,.7,.55,.24,1.16,.46,1.84,.66,.68,.19,1.35,.29,2.03,.29,.76,0,1.32-.12,1.68-.36,.36-.24,.54-.56,.54-.98,0-.44-.19-.78-.57-1.04-.38-.26-.9-.49-1.54-.71-.65-.21-1.4-.43-2.24-.67-1.1-.35-2.01-.73-2.72-1.14-.72-.41-1.25-.92-1.6-1.52-.35-.6-.52-1.35-.52-2.24,0-1.27,.3-2.34,.9-3.21,.6-.86,1.41-1.52,2.42-1.96,1.01-.44,2.12-.67,3.32-.67,.86,0,1.68,.1,2.46,.3,.78,.2,1.51,.46,2.2,.76,.69,.3,1.29,.62,1.8,.94l-1.8,3.39Z"/>
      <path class="cls-1" d="M135.5,64.99c-1.32,0-2.52-.26-3.61-.77-1.09-.52-2.03-1.21-2.83-2.08s-1.4-1.85-1.82-2.94c-.42-1.09-.63-2.22-.63-3.38s.22-2.34,.67-3.42c.45-1.08,1.07-2.05,1.88-2.9,.8-.85,1.75-1.52,2.85-2.01,1.1-.49,2.3-.74,3.6-.74s2.55,.26,3.64,.77,2.03,1.21,2.81,2.09c.78,.88,1.39,1.86,1.81,2.95,.42,1.09,.63,2.2,.63,3.33,0,1.2-.22,2.34-.66,3.42-.44,1.08-1.06,2.05-1.88,2.9-.81,.85-1.76,1.53-2.85,2.03-1.09,.5-2.29,.75-3.61,.75m-4.69-9.12c0,.69,.1,1.36,.32,2.01,.21,.65,.52,1.23,.91,1.74,.4,.51,.89,.91,1.47,1.22,.58,.3,1.27,.46,2.06,.46s1.46-.16,2.05-.47c.59-.31,1.08-.73,1.47-1.27,.39-.53,.68-1.12,.87-1.76,.19-.64,.29-1.3,.29-1.98s-.11-1.36-.32-2-.52-1.22-.91-1.74c-.4-.51-.89-.92-1.48-1.2-.59-.29-1.26-.43-2-.43-.79,0-1.49,.15-2.08,.46-.59,.3-1.08,.72-1.47,1.24-.39,.52-.68,1.1-.89,1.74-.2,.63-.3,1.3-.3,1.99"/>
      <polygon class="cls-1" points="152.8 64.86 152.8 46.87 164.98 46.87 164.98 50.52 156.95 50.52 156.95 54.37 163.59 54.37 163.59 57.79 156.95 57.79 156.95 64.86 152.8 64.86"/>
      <rect class="cls-1" x="167.21" y="46.87" width="4.15" height="17.99"/>
      <path class="cls-1" d="M174.81,64.86v-17.99h8.08c.86,0,1.66,.18,2.38,.53,.73,.35,1.35,.82,1.86,1.39,.52,.58,.92,1.23,1.22,1.95,.3,.73,.44,1.47,.44,2.23s-.12,1.43-.37,2.1c-.25,.67-.59,1.27-1.03,1.8-.44,.52-.95,.95-1.55,1.29l3.95,6.69h-4.59l-3.45-5.8h-2.81v5.8h-4.16Zm4.16-9.45h3.82c.32,0,.61-.1,.87-.3s.48-.49,.65-.86,.25-.79,.25-1.27c0-.51-.1-.94-.29-1.3-.19-.36-.44-.65-.73-.85-.29-.2-.59-.3-.9-.3h-3.67v4.89Z"/>
      <polygon class="cls-1" points="205.97 64.86 205.97 54.12 202.07 61.92 199.81 61.92 195.94 54.12 195.94 64.86 191.78 64.86 191.78 46.87 196.29 46.87 200.95 56.27 205.61 46.87 210.12 46.87 210.12 64.86 205.97 64.86"/>
      <polygon class="cls-1" points="226.21 61.21 226.21 64.86 213.57 64.86 213.57 46.87 225.98 46.87 225.98 50.52 217.72 50.52 217.72 54.02 224.82 54.02 224.82 57.39 217.72 57.39 217.72 61.21 226.21 61.21"/>
      <polygon class="cls-1" points="6.11 49.86 7.55 54.3 12.21 54.3 8.44 57.04 9.88 61.47 6.11 58.73 2.33 61.47 3.77 57.04 0 54.3 4.66 54.3 6.11 49.86"/>
      <polygon class="cls-1" points="237.6 49.88 239.04 54.31 243.7 54.31 239.93 57.05 241.37 61.49 237.6 58.75 233.82 61.49 235.27 57.05 231.49 54.31 236.16 54.31 237.6 49.88"/>
      <polygon class="cls-1" points="129.2 12.46 129.75 14.16 131.54 14.16 130.09 15.22 130.64 16.92 129.2 15.87 127.75 16.92 128.3 15.22 126.86 14.16 128.65 14.16 129.2 12.46"/>
      <polygon class="cls-1" points="115.4 2.67 115.95 4.37 117.74 4.37 116.29 5.42 116.84 7.12 115.4 6.07 113.95 7.12 114.5 5.42 113.06 4.37 114.85 4.37 115.4 2.67"/>
      <rect class="cls-1" x="122.3" width="13.8" height="9.79"/>
      <rect class="cls-1" x="108.5" y="9.79" width="13.8" height="9.79"/>
    </g>
  </g>
</svg>