<?xml version="1.0" encoding="UTF-8"?>
<svg id="Layer_2" data-name="Layer 2" xmlns="http://www.w3.org/2000/svg" viewBox="0 0 194.41 32.84">
  <defs>
    <style>
      .cls-1 {
        fill: #003e9a;
      }
    </style>
  </defs>
  <g id="Layer_1-2" data-name="Layer 1">
    <g>
      <path class="cls-1" d="M0,.67H8.56V3.23h.1C9.78,1.74,11.13,.09,15.48,.09c6.6,0,9.77,6.51,9.77,12.34,0,5.47-2.11,12.11-9.91,12.11-2.64,0-5.03-1.16-6.37-3.14h-.08v10.1H0V.67ZM12.47,18.08c3.18,0,3.9-3,3.9-5.74s-.72-5.79-3.9-5.79-3.91,3-3.91,5.79,.73,5.74,3.91,5.74"/>
      <path class="cls-1" d="M28.9,7.85c.12-3.05,1.56-5.02,3.62-6.25,2.07-1.16,4.75-1.61,7.41-1.61,5.51,0,10.84,1.21,10.84,7.81v10.18c0,1.98,0,4.14,.91,5.97h-7.68c-.27-.71-.36-1.43-.45-2.2-1.96,2.07-4.89,2.88-7.67,2.88-4.44,0-7.94-2.24-7.94-7.04,0-7.58,8.26-7,13.55-8.08,1.31-.27,2.02-.72,2.02-2.15,0-1.75-2.1-2.42-3.68-2.42-2.11,0-3.46,.94-3.82,2.92h-7.12Zm9.86,12.07c3.64,0,4.85-2.06,4.67-6.87-1.08,.67-3.04,.8-4.71,1.26-1.71,.4-3.14,1.12-3.14,2.96s1.48,2.65,3.18,2.65"/>
      <path class="cls-1" d="M55.68,.76h6.05V3.99h.14c1.62-2.6,4.4-3.85,7.1-3.85,6.76,0,8.47,3.81,8.47,9.56v14.26h-6.38V10.85c0-3.81-1.12-5.69-4.07-5.69-3.46,0-4.95,1.93-4.95,6.64v12.16h-6.36V.76Z"/>
      <path class="cls-1" d="M101.98,18.8c0,1.26,.27,1.75,1.21,1.75,.31,0,.72,0,1.26-.09v3.54c-.76,.27-2.38,.59-3.24,.59-2.06,0-3.54-.72-3.95-2.83-2.01,1.97-5.28,2.83-8.02,2.83-4.18,0-7.94-2.25-7.94-6.78,0-5.79,4.62-6.73,8.94-7.23,3.67-.67,6.94-.27,6.94-3.27,0-2.65-2.74-3.15-4.79-3.15-2.88,0-4.9,1.17-5.13,3.69h-5.12c.37-5.97,5.44-7.72,10.56-7.72,4.53,0,9.28,1.83,9.28,6.72v11.94Zm-5.11-6.46c-1.58,1.03-4.04,.98-6.28,1.39-2.21,.36-4.17,1.17-4.17,3.86,0,2.29,2.91,2.96,4.72,2.96,2.24,0,5.74-1.17,5.74-4.4v-3.81Z"/>
      <path class="cls-1" d="M107.81,.76h3.81V3.9h.09c1.26-2.56,4.21-3.68,7.4-3.68,7.13,0,10.68,5.65,10.68,12.2s-3.51,12.07-10.6,12.07c-2.37,0-5.79-.9-7.49-3.64h-.09v11.98h-3.81V.76Zm10.77,2.83c-5.11,0-7.09,4.4-7.09,8.76s2.07,8.79,7.32,8.79,6.96-4.44,6.96-8.97-2.24-8.57-7.18-8.57"/>
      <path class="cls-1" d="M132.93,7.9c.28-5.43,4.09-7.76,9.39-7.76,4.09,0,8.52,1.25,8.52,7.45v12.29c0,1.07,.53,1.71,1.66,1.71,.31,0,.67-.09,.9-.19v2.38c-.63,.14-1.08,.18-1.85,.18-2.87,0-3.31-1.61-3.31-4.03h-.1c-1.96,3-3.99,4.71-8.42,4.71s-7.77-2.11-7.77-6.77c0-6.51,6.32-6.73,12.43-7.45,2.33-.27,3.63-.58,3.63-3.13,0-3.82-2.74-4.76-6.05-4.76-3.5,0-6.1,1.62-6.2,5.39h-2.83Zm15.08,3.41h-.09c-.35,.68-1.61,.9-2.37,1.04-4.8,.85-10.77,.8-10.77,5.33,0,2.82,2.51,4.58,5.16,4.58,4.31,0,8.12-2.74,8.08-7.27v-3.68Z"/>
      <path class="cls-1" d="M157.12,16.29c.26,4.26,3.46,6.73,7.62,6.73,3,0,7.32-.89,7.32-4.89s-3.95-4.49-7.9-5.29c-3.99-.81-7.94-1.84-7.94-6.55s4.45-5.92,8.34-5.92c4.9,0,8.52,2.11,8.52,7.36h-1.7c-.04-4.17-2.96-5.88-6.82-5.88-3.13,0-6.63,1.17-6.63,4.44,0,3.68,3.95,4.26,7.67,5.07,4.58,.85,8.16,1.93,8.16,6.77s-4.97,6.37-9.02,6.37c-5.25,0-9.2-2.83-9.32-8.21h1.69Z"/>
      <path class="cls-1" d="M192.87,7.72c0-4.63-3.04-6.47-7.44-6.47-6.46,0-6.91,4.08-6.91,4.89,0,2.29,1,3.41,2.56,4.04,1.6,.62,3.44,1.03,5.92,1.7,3.54,.9,7.41,1.79,7.41,6.2,0,4.62-4.36,6.42-8.36,6.42-6.05,0-9.33-2.65-9.33-8.44h.9c0,5.11,3.1,7.54,8.43,7.54,3.33,0,7.45-1.47,7.45-5.43s-4-4.72-7.93-5.7c-2.2-.54-3.86-1-5.16-1.58-1.89-.81-2.79-2.29-2.79-4.76s2.07-5.78,7.81-5.78c5.11,0,8.35,2.24,8.35,7.36h-.91Z"/>
    </g>
  </g>
</svg>