<?xml version="1.0" encoding="UTF-8"?>
<svg id="Layer_2" data-name="Layer 2" xmlns="http://www.w3.org/2000/svg" viewBox="0 0 311.61 52.64">
  <defs>
    <style>
      .cls-1 {
        fill: #c5c6c7;
      }
    </style>
  </defs>
  <g id="Layer_1-2" data-name="Layer 1">
    <g>
      <path class="cls-1" d="M0,1.07H13.72V5.17h.16C15.67,2.79,17.83,.14,24.81,.14c10.58,0,15.67,10.43,15.67,19.78,0,8.77-3.37,19.41-15.89,19.41-4.24,0-8.06-1.86-10.22-5.04h-.13v16.19H0V1.07ZM19.99,28.98c5.1,0,6.25-4.82,6.25-9.2s-1.15-9.28-6.25-9.28-6.27,4.81-6.27,9.28,1.17,9.2,6.27,9.2"/>
      <path class="cls-1" d="M46.32,12.59c.19-4.89,2.5-8.05,5.81-10.01,3.31-1.85,7.62-2.58,11.88-2.58,8.82,0,17.38,1.94,17.38,12.51V28.83c0,3.18,0,6.63,1.46,9.57h-12.31c-.43-1.14-.57-2.3-.72-3.52-3.14,3.31-7.83,4.61-12.3,4.61-7.12,0-12.73-3.6-12.73-11.29,0-12.15,13.24-11.23,21.71-12.95,2.1-.43,3.25-1.15,3.25-3.45,0-2.8-3.37-3.88-5.89-3.88-3.39,0-5.54,1.51-6.12,4.68h-11.42Zm15.81,19.34c5.83,0,7.78-3.31,7.48-11.01-1.73,1.08-4.88,1.29-7.55,2.02-2.74,.65-5.03,1.79-5.03,4.75s2.36,4.24,5.1,4.24"/>
      <path class="cls-1" d="M89.25,1.22h9.69V6.4h.22c2.6-4.17,7.06-6.18,11.38-6.18,10.84,0,13.58,6.1,13.58,15.32v22.86h-10.22V17.39c0-6.1-1.8-9.12-6.53-9.12-5.55,0-7.93,3.1-7.93,10.65v19.48h-10.19V1.22Z"/>
      <path class="cls-1" d="M163.46,30.13c0,2.02,.43,2.8,1.94,2.8,.5,0,1.15,0,2.02-.14v5.68c-1.22,.43-3.82,.94-5.19,.94-3.3,0-5.67-1.15-6.33-4.54-3.22,3.16-8.46,4.54-12.85,4.54-6.7,0-12.73-3.6-12.73-10.86,0-9.27,7.4-10.79,14.32-11.58,5.89-1.08,11.13-.43,11.13-5.25,0-4.24-4.39-5.04-7.68-5.04-4.62,0-7.85,1.87-8.22,5.91h-8.2c.6-9.57,8.72-12.37,16.92-12.37,7.26,0,14.88,2.94,14.88,10.77V30.13Zm-8.19-10.35c-2.53,1.64-6.48,1.57-10.06,2.22-3.54,.57-6.69,1.87-6.69,6.19,0,3.66,4.66,4.74,7.56,4.74,3.58,0,9.19-1.87,9.19-7.05v-6.1Z"/>
      <path class="cls-1" d="M172.81,1.22h6.11V6.26h.15c2.01-4.1,6.75-5.9,11.86-5.9,11.43,0,17.12,9.06,17.12,19.56s-5.63,19.35-16.99,19.35c-3.8,0-9.27-1.44-12-5.84h-.15v19.2h-6.11V1.22Zm17.26,4.53c-8.19,0-11.37,7.05-11.37,14.03s3.31,14.08,11.73,14.08,11.15-7.12,11.15-14.38-3.59-13.74-11.51-13.74"/>
      <path class="cls-1" d="M213.06,12.66c.44-8.7,6.56-12.44,15.04-12.44,6.55,0,13.66,2,13.66,11.93V31.86c0,1.72,.85,2.74,2.67,2.74,.5,0,1.08-.15,1.44-.3v3.82c-1.02,.22-1.73,.28-2.97,.28-4.6,0-5.3-2.59-5.3-6.47h-.17c-3.14,4.81-6.39,7.55-13.5,7.55s-12.45-3.39-12.45-10.86c0-10.43,10.14-10.79,19.92-11.94,3.74-.43,5.82-.94,5.82-5.03,0-6.12-4.39-7.63-9.7-7.63-5.61,0-9.79,2.59-9.95,8.63h-4.53Zm24.18,5.46h-.15c-.56,1.08-2.57,1.44-3.8,1.67-7.7,1.36-17.26,1.28-17.26,8.55,0,4.52,4.03,7.33,8.27,7.33,6.9,0,13.02-4.39,12.94-11.65v-5.9Z"/>
      <path class="cls-1" d="M251.84,26.11c.42,6.83,5.54,10.78,12.22,10.78,4.82,0,11.74-1.43,11.74-7.84s-6.33-7.2-12.67-8.48c-6.4-1.3-12.73-2.95-12.73-10.5s7.13-9.49,13.37-9.49c7.85,0,13.66,3.37,13.66,11.8h-2.73c-.06-6.69-4.74-9.43-10.93-9.43-5.01,0-10.63,1.87-10.63,7.12,0,5.9,6.33,6.83,12.3,8.13,7.34,1.36,13.08,3.09,13.08,10.86s-7.97,10.21-14.46,10.21c-8.41,0-14.74-4.53-14.94-13.16h2.71Z"/>
      <path class="cls-1" d="M309.14,12.37c0-7.42-4.87-10.37-11.93-10.37-10.35,0-11.08,6.54-11.08,7.84,0,3.68,1.59,5.47,4.11,6.48,2.57,1,5.52,1.65,9.49,2.73,5.68,1.44,11.87,2.88,11.87,9.93,0,7.4-6.98,10.28-13.4,10.28-9.69,0-14.95-4.25-14.95-13.52h1.44c0,8.19,4.97,12.08,13.52,12.08,5.34,0,11.94-2.36,11.94-8.7s-6.41-7.56-12.71-9.13c-3.54-.87-6.19-1.59-8.28-2.52-3.02-1.29-4.47-3.67-4.47-7.62s3.32-9.27,12.52-9.27c8.2,0,13.39,3.59,13.39,11.8h-1.46Z"/>
    </g>
  </g>
</svg>