<?xml version="1.0" encoding="UTF-8"?>
<svg id="Layer_2" data-name="Layer 2" xmlns="http://www.w3.org/2000/svg" viewBox="0 0 299.98 48.61">
  <defs>
    <style>
      .cls-1 {
        fill: #c5c6c7;
      }
    </style>
  </defs>
  <g id="Layer_1-2" data-name="Layer 1">
    <g>
      <path class="cls-1" d="M32.6,40.13c-.98-.36-2.1-.48-3.16-.49-5.44-.05-10.89-.02-16.33-.02h-1.96v-11.81c.85,0,1.49,0,2.14,0,4.67,.01,9.33,.04,13.99,.03,2.62,0,4.36-1.71,4.37-4.19,0-2.47-1.74-4.16-4.37-4.17-4.73-.02-9.45,0-14.18,0h-1.94V8.88l13.1-.08c1.86,0,3.73-.01,5.59-.03,0,0,.13,0,.35-.01,1-.05,2.05-.25,2.9-.7,.54-.29,.98-.69,1.3-1.17,.42-.56,.69-1.28,.72-2.21,0-.02,0-.04,0-.06,0-.03,0-.05,0-.08,0-.04,0-.07,0-.11,0-.07,0-.14,0-.22-.14-3.01-2.21-3.82-3.22-4.04-.41-.1-.85-.15-1.32-.15C22.33-.01,14.08,0,5.83,.02c-.71,0-1.44,.08-2.12,.28C1.33,.99,.07,2.82,.05,5.82,0,13.66,.01,21.49,.01,29.33c0,4.54-.05,9.09,.05,13.64,.07,3.42,2,5.49,5.32,5.52,8.55,.09,17.11,.07,25.66,.02,2.04-.01,3.71-1.65,4.06-3.66,.32-1.89-.73-4.06-2.5-4.72"/>
      <path class="cls-1" d="M90.97,48.33c2.63,.9,5.29-.39,6.34-3.14,.77-2.01,1.51-4.03,2.17-6.07,.33-1.01,.85-1.38,1.93-1.37,4.78,.06,9.57,.06,14.35,0,1.1-.01,1.58,.38,1.89,1.4,.61,2,1.33,3.96,2.05,5.92,.85,2.3,2.55,3.49,4.89,3.47,3.23-.02,5.55-2.95,4.8-6.11-.23-.99-.56-1.95-.9-2.91-3.88-10.9-7.76-21.8-11.65-32.7C114.47,.18,114.23,.02,107.23,.09c-2.75,.03-4.01,.89-4.99,3.47-3.09,8.15-6.18,16.29-9.25,24.45-1.76,4.69-3.57,9.37-5.17,14.12-.91,2.7,.58,5.32,3.15,6.2M107.99,11.95c.12,.02,.25,.03,.37,.05,1.94,6.05,3.89,12.09,5.9,18.35h-12.45c2.09-6.21,4.14-12.3,6.18-18.4"/>
      <path class="cls-1" d="M44.29,48.47c2.51-.46,4.13-2.59,4.13-5.51,0-8.07,0-16.14,0-24.21v-1.71c.13-.02,.27-.03,.4-.05,.32,.5,.65,.99,.97,1.5,5.95,9.38,11.9,18.77,17.85,28.15,1.21,1.9,2.84,2.44,4.32,1.46,1.45-.96,1.69-2.6,.54-4.41-8.75-13.83-17.52-27.65-26.3-41.46-1.15-1.81-3.06-2.52-4.95-1.96-1.81,.53-3.05,2.1-3.06,4.18-.03,13.03-.05,26.07,0,39.1,.01,3.3,2.9,5.53,6.09,4.95"/>
      <path class="cls-1" d="M79.37,.09c-3.02,.02-5.04,2.19-5.05,5.51-.02,4.36,0,8.73,0,13.09v12.87c-.13,.04-.26,.07-.39,.11-.33-.49-.67-.96-.98-1.46-3.55-5.6-7.1-11.2-10.65-16.8-2.49-3.94-4.97-7.88-7.49-11.8-1.02-1.59-2.58-1.98-4-1.12-1.39,.83-1.73,2.46-.86,4.08,.17,.32,.37,.61,.56,.92,8.55,13.46,17.1,26.92,25.65,40.39,1.41,2.22,3.19,3.09,5.2,2.54,2.05-.56,3.1-2.16,3.1-4.85,0-12.67,0-25.34-.01-38.02,0-3.33-2.03-5.48-5.06-5.46"/>
      <polygon class="cls-1" points="152.32 9.16 152.32 7.73 143.83 7.73 143.83 19.43 152.44 19.43 152.44 18.04 145.37 18.04 145.37 14.07 151.79 14.07 151.79 12.72 145.37 12.72 145.37 9.16 152.32 9.16"/>
      <path class="cls-1" d="M160.15,17.62l-3.37-9.89h-2.27v11.7h1.51v-6.9c0-.28,0-.71-.02-1.3-.02-.59-.02-1.02-.02-1.31v-.36l3.37,9.87h1.57l3.34-9.87c0,.63,0,1.23-.02,1.78,0,.55-.02,.95-.02,1.19v6.9h1.51V7.73h-2.26l-3.34,9.89Z"/>
      <path class="cls-1" d="M169.88,14.49h3.65c1.17,0,2.04-.34,2.61-1.02,.57-.68,.85-1.47,.85-2.39,0-1.06-.32-1.89-.96-2.47-.64-.59-1.47-.88-2.51-.88h-5.24v11.7h1.59v-4.95Zm0-5.39h3.13c.61,0,1.08,.08,1.43,.25,.63,.31,.95,.89,.95,1.75,0,.77-.22,1.3-.66,1.6-.44,.3-1.01,.45-1.72,.45h-3.13v-4.06Z"/>
      <path class="cls-1" d="M185.69,14.63c.52,.26,.79,.77,.83,1.54l.09,1.95c.02,.46,.05,.76,.08,.92,.03,.16,.08,.29,.13,.39h1.94v-.26c-.24-.11-.41-.34-.51-.72-.06-.22-.09-.55-.11-1l-.05-1.57c-.03-.68-.16-1.17-.39-1.47-.23-.3-.57-.55-1.03-.73,.52-.27,.92-.63,1.21-1.08,.29-.44,.43-1.02,.43-1.72,0-1.34-.54-2.26-1.62-2.77-.57-.26-1.29-.39-2.17-.39h-5.32v11.7h1.59v-5.02h3.51c.63,0,1.09,.07,1.39,.22m-4.89-5.54h3.76c.53,0,.95,.08,1.26,.24,.59,.3,.88,.87,.88,1.7,0,.78-.21,1.31-.63,1.61-.42,.3-.99,.45-1.72,.45h-3.56v-4Z"/>
      <polygon class="cls-1" points="199.57 18.04 192.5 18.04 192.5 14.07 198.92 14.07 198.92 12.72 192.5 12.72 192.5 9.16 199.45 9.16 199.45 7.73 190.96 7.73 190.96 19.43 199.57 19.43 199.57 18.04"/>
      <path class="cls-1" d="M207.42,18.18c-.47,.17-.99,.26-1.57,.26-1.28,0-2.17-.39-2.68-1.16-.27-.41-.42-.95-.45-1.62h-1.49c-.02,1.26,.38,2.26,1.18,3,.8,.74,1.91,1.12,3.33,1.12,1.22,0,2.29-.28,3.21-.84,.92-.56,1.38-1.49,1.38-2.78,0-1.04-.36-1.84-1.08-2.38-.42-.31-1.01-.56-1.77-.74l-1.59-.38c-1.07-.25-1.76-.47-2.06-.64-.46-.27-.69-.69-.69-1.26,0-.52,.2-.98,.59-1.37,.39-.39,1.04-.59,1.93-.59,1.11,0,1.9,.31,2.36,.92,.25,.33,.41,.82,.49,1.44h1.49c0-1.3-.42-2.25-1.25-2.84-.83-.59-1.85-.89-3.04-.89-1.3,0-2.3,.34-3.01,1.01-.71,.67-1.06,1.54-1.06,2.59,0,.97,.36,1.7,1.08,2.19,.42,.28,1.13,.54,2.13,.77l1.54,.36c.83,.2,1.44,.43,1.84,.69,.39,.27,.58,.72,.58,1.36,0,.85-.46,1.44-1.37,1.77"/>
      <path class="cls-1" d="M220.28,19.43h1.74l-4.25-11.7h-1.79l-4.41,11.7h1.63l1.27-3.5h4.59l1.22,3.5Zm-5.34-4.79l1.87-5.17,1.8,5.17h-3.67Z"/>
      <polygon class="cls-1" points="236.3 19.43 236.3 7.73 234.79 7.73 234.79 17.19 228.96 7.73 227.09 7.73 227.09 19.43 228.6 19.43 228.6 9.99 234.52 19.43 236.3 19.43"/>
      <path class="cls-1" d="M245.36,15.93l1.22,3.5h1.74l-4.25-11.7h-1.79l-4.41,11.7h1.62l1.27-3.5h4.59Zm-2.25-6.46l1.8,5.17h-3.67l1.87-5.17Z"/>
      <path class="cls-1" d="M254.64,8.79c.93,0,1.65,.22,2.16,.66,.51,.44,.86,1.04,1.03,1.79h1.55c-.09-.99-.54-1.88-1.35-2.66-.81-.78-1.95-1.17-3.41-1.17-1.72,0-3.06,.6-4.04,1.8-.9,1.11-1.35,2.52-1.35,4.25,0,2.28,.6,3.96,1.8,5.05,.91,.82,2.04,1.24,3.39,1.24,1.56,0,2.8-.5,3.72-1.51,.77-.83,1.22-1.86,1.35-3.1h-1.54c-.16,.77-.39,1.39-.71,1.86-.6,.9-1.47,1.35-2.62,1.35-1.25,0-2.18-.43-2.81-1.28-.63-.85-.94-1.97-.94-3.34,0-1.67,.35-2.92,1.04-3.73,.7-.81,1.61-1.22,2.74-1.22"/>
      <rect class="cls-1" x="261.89" y="7.73" width="1.6" height="11.7"/>
      <path class="cls-1" d="M275.53,17.73c.89-1.16,1.33-2.61,1.33-4.36,0-1.61-.39-2.94-1.16-3.97-.99-1.33-2.52-1.99-4.59-1.99s-3.47,.72-4.48,2.17c-.79,1.13-1.18,2.48-1.18,4.06,0,1.75,.46,3.2,1.38,4.35,1.03,1.19,2.45,1.78,4.24,1.78,1.93,0,3.41-.68,4.45-2.04m-7.45-.71c-.66-.89-.98-1.98-.98-3.28,0-1.62,.38-2.85,1.15-3.68,.77-.83,1.75-1.25,2.96-1.25s2.23,.42,2.95,1.26c.72,.84,1.08,1.95,1.08,3.33,0,1.3-.31,2.45-.94,3.45-.62,1-1.63,1.5-3.03,1.5-1.47,0-2.53-.45-3.19-1.34"/>
      <polygon class="cls-1" points="287.97 19.43 287.97 7.73 286.45 7.73 286.45 17.19 280.62 7.73 278.75 7.73 278.75 19.43 280.27 19.43 280.27 9.99 286.19 19.43 287.97 19.43"/>
      <path class="cls-1" d="M293.95,7.73l-4.41,11.7h1.63l1.27-3.5h4.59l1.22,3.5h1.74l-4.25-11.7h-1.79Zm-1.04,6.91l1.87-5.17,1.8,5.17h-3.67Z"/>
      <path class="cls-1" d="M148.42,27.31h-4.68v11.7h4.66c1.98,0,3.38-.89,4.19-2.66,.46-1,.69-2.13,.69-3.37,0-1.61-.39-2.93-1.17-3.96-.88-1.14-2.11-1.71-3.7-1.71m3.12,7.17c-.14,.74-.36,1.34-.66,1.82-.39,.59-.88,.99-1.48,1.2-.34,.11-.77,.17-1.29,.17h-2.76v-8.98h2.75c1.25,0,2.16,.4,2.72,1.2,.56,.8,.84,1.93,.84,3.38,0,.38-.04,.79-.12,1.23"/>
      <polygon class="cls-1" points="157.15 33.65 163.57 33.65 163.57 32.29 157.15 32.29 157.15 28.74 164.1 28.74 164.1 27.31 155.61 27.31 155.61 39.01 164.22 39.01 164.22 37.61 157.15 37.61 157.15 33.65"/>
      <path class="cls-1" d="M173.39,27.31l-4.41,11.7h1.63l1.27-3.5h4.59l1.22,3.5h1.74l-4.25-11.7h-1.79Zm-1.04,6.91l1.87-5.17,1.8,5.17h-3.67Z"/>
      <path class="cls-1" d="M188.62,34.54c0,.85-.13,1.52-.39,2.02-.49,.92-1.41,1.38-2.76,1.38-1.13,0-1.93-.43-2.41-1.27-.32-.56-.48-1.27-.48-2.12v-7.23h-1.6v6.57c0,1.44,.2,2.55,.58,3.32,.71,1.41,2.05,2.12,4.04,2.12s3.33-.71,4.04-2.12c.39-.77,.58-1.88,.58-3.32v-6.57h-1.6v7.23Z"/>
      <polygon class="cls-1" points="191.66 28.7 195.6 28.7 195.6 39.01 197.2 39.01 197.2 28.7 201.15 28.7 201.15 27.31 191.66 27.31 191.66 28.7"/>
      <path class="cls-1" d="M207.37,26.99c-1.97,0-3.47,.72-4.48,2.17-.79,1.13-1.18,2.48-1.18,4.06,0,1.75,.46,3.2,1.38,4.35,1.03,1.19,2.45,1.78,4.25,1.78,1.93,0,3.41-.68,4.45-2.04,.89-1.16,1.33-2.61,1.33-4.36,0-1.61-.39-2.94-1.16-3.97-.99-1.33-2.52-1.99-4.59-1.99m3.19,9.45c-.62,1-1.63,1.5-3.03,1.5-1.47,0-2.53-.45-3.19-1.34-.65-.89-.98-1.98-.98-3.28,0-1.62,.38-2.85,1.15-3.68,.77-.83,1.75-1.25,2.96-1.25s2.23,.42,2.95,1.26c.72,.84,1.08,1.95,1.08,3.32,0,1.3-.31,2.45-.94,3.45"/>
      <path class="cls-1" d="M220.39,27.31h-5.24v11.7h1.59v-4.95h3.65c1.17,0,2.04-.34,2.61-1.02,.57-.68,.85-1.47,.85-2.38,0-1.06-.32-1.89-.95-2.47-.64-.59-1.47-.88-2.51-.88m1.2,4.96c-.44,.3-1.01,.45-1.72,.45h-3.13v-4.05h3.13c.61,0,1.08,.08,1.43,.25,.63,.31,.95,.89,.95,1.75,0,.76-.22,1.3-.66,1.6"/>
      <rect class="cls-1" x="226.24" y="27.31" width="1.6" height="11.7"/>
      <path class="cls-1" d="M237.98,33.35c-.42-.31-1.01-.56-1.78-.74l-1.59-.38c-1.07-.25-1.76-.47-2.06-.63-.46-.27-.69-.69-.69-1.26,0-.52,.2-.98,.59-1.37,.39-.39,1.04-.59,1.93-.59,1.11,0,1.9,.31,2.36,.92,.25,.34,.41,.82,.49,1.44h1.49c0-1.3-.42-2.25-1.25-2.84-.83-.59-1.85-.89-3.04-.89-1.3,0-2.3,.34-3.01,1.01-.71,.67-1.06,1.54-1.06,2.59,0,.97,.36,1.7,1.08,2.19,.42,.28,1.13,.54,2.13,.77l1.54,.36c.83,.2,1.44,.43,1.84,.69,.39,.27,.58,.72,.58,1.36,0,.85-.46,1.44-1.37,1.77-.47,.17-.99,.26-1.57,.26-1.28,0-2.17-.39-2.68-1.16-.27-.41-.42-.95-.45-1.62h-1.49c-.02,1.26,.38,2.26,1.18,3,.8,.74,1.91,1.11,3.33,1.11,1.22,0,2.29-.28,3.2-.84,.92-.56,1.38-1.49,1.38-2.78,0-1.04-.36-1.83-1.08-2.38"/>
      <polygon class="cls-1" points="249.81 27.31 240.32 27.31 240.32 28.7 244.26 28.7 244.26 39.01 245.86 39.01 245.86 28.7 249.81 28.7 249.81 27.31"/>
      <path class="cls-1" d="M253.48,27.31l-4.41,11.7h1.62l1.27-3.5h4.59l1.22,3.5h1.74l-4.25-11.7h-1.79Zm-1.04,6.91l1.87-5.17,1.8,5.17h-3.67Z"/>
      <path class="cls-1" d="M281.22,37.03c-.56,0-.95,.41-.95,1s.38,1,.94,1c.59,0,.95-.43,.95-1s-.38-1-.94-1"/>
      <path class="cls-1" d="M297.31,37.03c-.56,0-.95,.41-.95,1s.38,1,.94,1c.59,0,.95-.43,.95-1s-.38-1-.94-1"/>
      <path class="cls-1" d="M277.28,33.35c-.42-.31-1.01-.56-1.78-.74l-1.59-.38c-1.07-.25-1.76-.47-2.06-.63-.46-.27-.69-.69-.69-1.26,0-.52,.2-.98,.59-1.37,.39-.39,1.04-.59,1.93-.59,1.11,0,1.9,.31,2.36,.92,.25,.34,.41,.82,.49,1.44h1.49c0-1.3-.42-2.25-1.25-2.84-.83-.59-1.85-.89-3.04-.89-1.3,0-2.3,.34-3.01,1.01-.71,.67-1.06,1.54-1.06,2.59,0,.97,.36,1.7,1.08,2.19,.42,.28,1.13,.54,2.13,.77l1.54,.36c.83,.2,1.44,.43,1.84,.69,.39,.27,.58,.72,.58,1.36,0,.85-.46,1.44-1.37,1.77-.47,.17-.99,.26-1.57,.26-1.28,0-2.17-.39-2.68-1.16-.27-.41-.42-.95-.45-1.62h-1.49c-.02,1.26,.38,2.26,1.18,3,.8,.74,1.91,1.11,3.33,1.11,1.22,0,2.29-.28,3.2-.84,.92-.56,1.38-1.49,1.38-2.78,0-1.04-.36-1.83-1.08-2.38"/>
      <path class="cls-1" d="M288.46,27.31l-4.41,11.7h1.62l1.27-3.5h4.59l1.22,3.5h1.74l-4.25-11.7h-1.79Zm-1.04,6.91l1.87-5.17,1.8,5.17h-3.67Z"/>
      <path class="cls-1" d="M261.39,39.01h.62c-.01,.83-.25,1.34-.72,1.53v.67c.57-.2,.95-.52,1.13-.95s.27-1,.27-1.7v-1.18h-1.3v1.64Z"/>
    </g>
  </g>
</svg>