<?xml version="1.0" encoding="UTF-8"?>
<svg id="Layer_2" data-name="Layer 2" xmlns="http://www.w3.org/2000/svg" viewBox="0 0 252.69 39.77">
  <defs>
    <style>
      .cls-1 {
        fill: #214097;
      }
    </style>
  </defs>
  <g id="Layer_1-2" data-name="Layer 1">
    <g>
      <path class="cls-1" d="M26.67,32.83c-.8-.3-1.72-.39-2.59-.4-4.45-.04-8.91-.02-13.36-.02h-1.6v-9.67c.69,0,1.22,0,1.75,0,3.82,0,7.63,.03,11.45,.02,2.14,0,3.57-1.4,3.57-3.43,0-2.02-1.43-3.4-3.57-3.41-3.87-.01-7.73,0-11.6,0h-1.58V7.26l10.72-.06c1.52,0,3.05,0,4.58-.03,0,0,.1,0,.28,0,.82-.04,1.68-.21,2.37-.58,.44-.23,.8-.57,1.07-.96,.34-.46,.57-1.05,.59-1.81,0-.02,0-.03,0-.05,0-.02,0-.04,0-.06,0-.03,0-.06,0-.09,0-.06,0-.12,0-.18-.11-2.46-1.81-3.13-2.63-3.31-.33-.08-.69-.12-1.08-.12C18.27,0,11.52,0,4.77,.01c-.58,0-1.18,.07-1.74,.23C1.09,.81,.06,2.31,.04,4.76,0,11.17,.01,17.58,0,23.99,0,27.71-.03,31.43,.05,35.15c.06,2.8,1.64,4.49,4.35,4.52,7,.07,13.99,.05,20.99,.01,1.67,0,3.04-1.35,3.32-2.99,.26-1.54-.6-3.32-2.04-3.86"/>
      <path class="cls-1" d="M74.42,39.54c2.15,.74,4.33-.32,5.19-2.56,.63-1.64,1.23-3.29,1.77-4.96,.27-.83,.69-1.13,1.58-1.12,3.91,.05,7.83,.05,11.74,0,.9-.01,1.29,.31,1.55,1.15,.5,1.63,1.08,3.24,1.67,4.84,.69,1.88,2.09,2.85,4,2.84,2.64-.02,4.54-2.41,3.93-5-.19-.81-.46-1.6-.73-2.38-3.17-8.92-6.35-17.84-9.53-26.76C93.65,.15,93.45,.01,87.72,.08c-2.25,.02-3.28,.73-4.08,2.84-2.53,6.66-5.06,13.33-7.57,20-1.44,3.84-2.92,7.66-4.23,11.55-.74,2.21,.48,4.35,2.58,5.07m13.93-29.76c.1,.01,.2,.03,.3,.04,1.59,4.95,3.18,9.89,4.83,15.01h-10.19c1.71-5.08,3.38-10.06,5.06-15.05"/>
      <path class="cls-1" d="M36.23,39.65c2.05-.38,3.38-2.12,3.38-4.51,0-6.6,0-13.21,0-19.81v-1.4c.11-.01,.22-.02,.33-.04,.27,.41,.53,.81,.8,1.23,4.87,7.68,9.73,15.36,14.6,23.03,.99,1.55,2.32,2,3.54,1.19,1.18-.79,1.39-2.13,.45-3.61-7.16-11.31-14.33-22.62-21.52-33.92-.94-1.48-2.5-2.06-4.05-1.61-1.48,.44-2.5,1.72-2.5,3.42-.03,10.66-.04,21.32,0,31.99,.01,2.7,2.37,4.53,4.98,4.05"/>
      <path class="cls-1" d="M64.93,.08c-2.47,.01-4.12,1.79-4.13,4.5-.02,3.57,0,7.14,0,10.71v10.53c-.11,.03-.21,.06-.32,.09-.27-.4-.55-.79-.8-1.19-2.91-4.58-5.81-9.16-8.71-13.74-2.04-3.22-4.07-6.45-6.13-9.65-.84-1.3-2.11-1.62-3.27-.92-1.13,.68-1.42,2.01-.7,3.34,.14,.26,.3,.5,.46,.75,6.99,11.01,13.99,22.03,20.98,33.04,1.15,1.81,2.61,2.53,4.25,2.08,1.68-.46,2.53-1.77,2.53-3.97,0-10.37,0-20.73,0-31.1,0-2.72-1.66-4.48-4.14-4.47"/>
      <polygon class="cls-1" points="124.61 7.5 124.61 6.32 117.66 6.32 117.66 15.9 124.71 15.9 124.71 14.76 118.93 14.76 118.93 11.51 124.18 11.51 124.18 10.4 118.93 10.4 118.93 7.5 124.61 7.5"/>
      <path class="cls-1" d="M131.02,14.42l-2.75-8.09h-1.86V15.9h1.24v-5.65c0-.23,0-.58-.02-1.06-.01-.48-.02-.84-.02-1.07v-.29l2.76,8.07h1.29l2.73-8.07c0,.52,0,1-.01,1.45,0,.45-.01,.78-.01,.97v5.65h1.24V6.32h-1.85l-2.73,8.09Z"/>
      <path class="cls-1" d="M138.98,11.85h2.99c.96,0,1.67-.28,2.13-.83,.46-.55,.7-1.2,.7-1.95,0-.87-.26-1.54-.78-2.02-.52-.48-1.2-.72-2.05-.72h-4.28V15.9h1.3v-4.05Zm0-4.41h2.56c.5,0,.89,.07,1.17,.2,.52,.25,.78,.73,.78,1.43,0,.62-.18,1.06-.54,1.31s-.83,.37-1.41,.37h-2.56v-3.32Z"/>
      <path class="cls-1" d="M151.92,11.97c.42,.21,.65,.63,.68,1.26l.08,1.6c.02,.37,.04,.62,.06,.76,.03,.13,.06,.24,.1,.32h1.59v-.21c-.2-.09-.34-.28-.42-.59-.05-.18-.08-.45-.09-.82l-.05-1.28c-.02-.56-.13-.96-.32-1.21-.19-.25-.47-.45-.84-.6,.43-.22,.76-.51,.99-.88,.24-.36,.35-.83,.35-1.41,0-1.1-.44-1.85-1.32-2.26-.46-.21-1.06-.32-1.77-.32h-4.35V15.9h1.3v-4.1h2.87c.51,0,.89,.06,1.13,.18m-4-4.53h3.08c.43,0,.77,.07,1.03,.2,.48,.25,.72,.71,.72,1.39,0,.63-.17,1.07-.52,1.32-.34,.24-.81,.37-1.4,.37h-2.91v-3.27Z"/>
      <polygon class="cls-1" points="163.27 14.76 157.49 14.76 157.49 11.51 162.74 11.51 162.74 10.4 157.49 10.4 157.49 7.5 163.17 7.5 163.17 6.32 156.22 6.32 156.22 15.9 163.27 15.9 163.27 14.76"/>
      <path class="cls-1" d="M169.69,14.87c-.39,.14-.81,.21-1.28,.21-1.05,0-1.78-.32-2.19-.95-.22-.34-.34-.78-.37-1.32h-1.22c-.01,1.03,.31,1.85,.97,2.46,.66,.61,1.57,.91,2.73,.91,1,0,1.87-.23,2.62-.68,.75-.46,1.13-1.21,1.13-2.27,0-.85-.29-1.5-.88-1.95-.34-.26-.82-.46-1.45-.61l-1.3-.31c-.88-.21-1.44-.38-1.69-.52-.38-.22-.57-.56-.57-1.03,0-.43,.16-.8,.48-1.12,.32-.32,.85-.48,1.58-.48,.91,0,1.55,.25,1.93,.75,.2,.27,.34,.67,.4,1.18h1.22c0-1.06-.34-1.84-1.02-2.32-.68-.48-1.51-.73-2.49-.73-1.06,0-1.88,.28-2.46,.83-.58,.55-.87,1.26-.87,2.12,0,.79,.29,1.39,.88,1.79,.34,.23,.92,.44,1.74,.63l1.26,.29c.68,.16,1.18,.35,1.5,.57,.32,.22,.47,.59,.47,1.11,0,.7-.37,1.18-1.12,1.45"/>
      <path class="cls-1" d="M180.21,15.9h1.42l-3.48-9.57h-1.46l-3.6,9.57h1.33l1.04-2.87h3.76l1,2.87Zm-4.37-3.92l1.53-4.23,1.47,4.23h-3Z"/>
      <polygon class="cls-1" points="193.32 15.9 193.32 6.32 192.08 6.32 192.08 14.06 187.31 6.32 185.78 6.32 185.78 15.9 187.02 15.9 187.02 8.17 191.86 15.9 193.32 15.9"/>
      <path class="cls-1" d="M200.73,13.03l1,2.87h1.42l-3.48-9.57h-1.46l-3.6,9.57h1.33l1.04-2.87h3.76Zm-1.84-5.29l1.47,4.23h-3.01l1.53-4.23Z"/>
      <path class="cls-1" d="M208.32,7.19c.76,0,1.35,.18,1.77,.54,.42,.36,.7,.85,.84,1.47h1.26c-.07-.81-.44-1.54-1.1-2.18-.66-.64-1.59-.96-2.79-.96-1.4,0-2.51,.49-3.3,1.47-.74,.91-1.11,2.06-1.11,3.48,0,1.86,.49,3.24,1.47,4.13,.75,.67,1.67,1.01,2.77,1.01,1.28,0,2.29-.41,3.04-1.23,.63-.68,1-1.53,1.11-2.53h-1.26c-.13,.63-.32,1.14-.58,1.53-.49,.73-1.21,1.1-2.15,1.1-1.02,0-1.79-.35-2.3-1.05-.51-.7-.77-1.61-.77-2.73,0-1.37,.28-2.39,.85-3.05,.57-.66,1.32-.99,2.24-.99"/>
      <rect class="cls-1" x="214.25" y="6.32" width="1.31" height="9.57"/>
      <path class="cls-1" d="M225.41,14.51c.73-.95,1.09-2.13,1.09-3.56,0-1.32-.32-2.4-.95-3.25-.81-1.09-2.06-1.63-3.75-1.63s-2.84,.59-3.66,1.77c-.64,.92-.96,2.03-.96,3.32,0,1.43,.38,2.62,1.13,3.56,.84,.97,2,1.46,3.47,1.46,1.58,0,2.79-.55,3.64-1.67m-6.1-.58c-.54-.73-.81-1.62-.81-2.68,0-1.33,.31-2.33,.94-3.01,.63-.68,1.43-1.02,2.42-1.02s1.83,.34,2.42,1.03c.59,.69,.88,1.59,.88,2.72,0,1.06-.26,2.01-.77,2.83-.51,.82-1.34,1.23-2.48,1.23-1.2,0-2.07-.36-2.61-1.09"/>
      <polygon class="cls-1" points="235.59 15.9 235.59 6.32 234.35 6.32 234.35 14.06 229.57 6.32 228.05 6.32 228.05 15.9 229.28 15.9 229.28 8.17 234.13 15.9 235.59 15.9"/>
      <path class="cls-1" d="M240.48,6.32l-3.6,9.57h1.33l1.04-2.87h3.76l1,2.87h1.42l-3.48-9.57h-1.46Zm-.85,5.65l1.53-4.23,1.47,4.23h-3Z"/>
      <polygon class="cls-1" points="247.88 14.76 247.88 6.32 246.59 6.32 246.59 15.9 252.69 15.9 252.69 14.76 247.88 14.76"/>
      <path class="cls-1" d="M121.42,22.34h-3.83v9.57h3.81c1.62,0,2.76-.73,3.43-2.18,.38-.82,.57-1.74,.57-2.76,0-1.32-.32-2.4-.96-3.24-.72-.93-1.72-1.4-3.02-1.4m2.56,5.86c-.11,.6-.29,1.1-.54,1.49-.31,.48-.72,.81-1.21,.98-.28,.09-.63,.14-1.06,.14h-2.26v-7.35h2.25c1.02,0,1.77,.33,2.23,.98,.46,.66,.69,1.58,.69,2.76,0,.31-.03,.64-.09,1"/>
      <polygon class="cls-1" points="128.57 27.53 133.82 27.53 133.82 26.42 128.57 26.42 128.57 23.51 134.25 23.51 134.25 22.34 127.3 22.34 127.3 31.91 134.35 31.91 134.35 30.77 128.57 30.77 128.57 27.53"/>
      <path class="cls-1" d="M141.85,22.34l-3.6,9.57h1.33l1.04-2.87h3.76l1,2.87h1.42l-3.48-9.57h-1.46Zm-.85,5.65l1.53-4.23,1.47,4.23h-3Z"/>
      <path class="cls-1" d="M154.31,28.26c0,.69-.11,1.24-.32,1.65-.4,.75-1.15,1.13-2.26,1.13-.92,0-1.58-.35-1.97-1.04-.26-.46-.4-1.04-.4-1.73v-5.92h-1.31v5.38c0,1.18,.16,2.08,.48,2.72,.58,1.15,1.68,1.73,3.3,1.73s2.73-.58,3.31-1.73c.32-.63,.48-1.54,.48-2.72v-5.38h-1.31v5.92Z"/>
      <polygon class="cls-1" points="156.8 23.48 160.02 23.48 160.02 31.91 161.33 31.91 161.33 23.48 164.56 23.48 164.56 22.34 156.8 22.34 156.8 23.48"/>
      <path class="cls-1" d="M169.65,22.08c-1.62,0-2.84,.59-3.66,1.77-.64,.92-.97,2.03-.97,3.32,0,1.43,.38,2.62,1.13,3.56,.84,.97,2,1.46,3.47,1.46,1.58,0,2.79-.56,3.64-1.67,.73-.95,1.09-2.14,1.09-3.56,0-1.32-.32-2.4-.95-3.25-.81-1.08-2.06-1.63-3.75-1.63m2.61,7.73c-.51,.82-1.34,1.23-2.48,1.23-1.2,0-2.07-.36-2.61-1.09-.54-.73-.8-1.62-.8-2.68,0-1.33,.31-2.33,.94-3.01,.63-.68,1.43-1.02,2.42-1.02s1.83,.34,2.41,1.03c.59,.69,.88,1.59,.88,2.72,0,1.06-.26,2.01-.77,2.83"/>
      <path class="cls-1" d="M180.3,22.34h-4.28v9.57h1.3v-4.05h2.99c.96,0,1.67-.28,2.13-.83,.46-.55,.7-1.2,.7-1.95,0-.87-.26-1.54-.78-2.02-.52-.48-1.21-.72-2.05-.72m.98,4.06c-.36,.25-.83,.37-1.41,.37h-2.56v-3.32h2.56c.5,0,.89,.07,1.17,.2,.52,.25,.78,.73,.78,1.43,0,.62-.18,1.06-.54,1.31"/>
      <rect class="cls-1" x="185.09" y="22.34" width="1.31" height="9.57"/>
      <path class="cls-1" d="M194.69,27.29c-.34-.26-.82-.46-1.45-.61l-1.3-.31c-.88-.21-1.44-.38-1.69-.52-.38-.22-.57-.56-.57-1.03,0-.43,.16-.8,.48-1.12,.32-.32,.85-.48,1.58-.48,.91,0,1.55,.25,1.93,.75,.2,.27,.34,.67,.4,1.18h1.22c0-1.06-.34-1.84-1.02-2.32-.68-.48-1.51-.73-2.49-.73-1.06,0-1.88,.28-2.46,.83-.58,.55-.87,1.26-.87,2.12,0,.8,.29,1.39,.88,1.79,.34,.23,.92,.44,1.74,.63l1.26,.29c.68,.16,1.18,.35,1.5,.57,.32,.22,.47,.59,.47,1.11,0,.69-.37,1.18-1.12,1.45-.39,.14-.81,.21-1.28,.21-1.05,0-1.77-.32-2.19-.95-.22-.34-.34-.78-.37-1.32h-1.22c-.01,1.03,.31,1.85,.97,2.46,.66,.61,1.57,.91,2.72,.91,1,0,1.87-.23,2.62-.68,.75-.46,1.13-1.21,1.13-2.27,0-.85-.29-1.5-.88-1.95"/>
      <polygon class="cls-1" points="204.37 22.34 196.61 22.34 196.61 23.48 199.83 23.48 199.83 31.91 201.14 31.91 201.14 23.48 204.37 23.48 204.37 22.34"/>
      <path class="cls-1" d="M207.37,22.34l-3.6,9.57h1.33l1.04-2.87h3.76l1,2.87h1.42l-3.48-9.57h-1.46Zm-.85,5.65l1.53-4.23,1.47,4.23h-3Z"/>
      <path class="cls-1" d="M230.07,30.3c-.46,0-.78,.34-.78,.82s.31,.82,.77,.82c.48,0,.78-.35,.78-.82s-.31-.82-.77-.82"/>
      <path class="cls-1" d="M243.23,30.3c-.46,0-.78,.34-.78,.82s.31,.82,.77,.82c.48,0,.78-.35,.78-.82s-.31-.82-.77-.82"/>
      <path class="cls-1" d="M226.84,27.29c-.34-.26-.82-.46-1.45-.61l-1.3-.31c-.88-.21-1.44-.38-1.69-.52-.38-.22-.57-.56-.57-1.03,0-.43,.16-.8,.48-1.12,.32-.32,.85-.48,1.58-.48,.91,0,1.55,.25,1.93,.75,.2,.27,.34,.67,.4,1.18h1.22c0-1.06-.34-1.84-1.02-2.32-.68-.48-1.51-.73-2.49-.73-1.06,0-1.88,.28-2.46,.83-.58,.55-.87,1.26-.87,2.12,0,.8,.29,1.39,.88,1.79,.34,.23,.92,.44,1.74,.63l1.26,.29c.68,.16,1.18,.35,1.5,.57,.32,.22,.47,.59,.47,1.11,0,.69-.37,1.18-1.12,1.45-.39,.14-.81,.21-1.28,.21-1.05,0-1.77-.32-2.19-.95-.22-.34-.34-.78-.37-1.32h-1.22c-.01,1.03,.31,1.85,.97,2.46,.66,.61,1.57,.91,2.72,.91,1,0,1.87-.23,2.62-.68,.75-.46,1.13-1.21,1.13-2.27,0-.85-.29-1.5-.88-1.95"/>
      <path class="cls-1" d="M235.99,22.34l-3.6,9.57h1.33l1.04-2.87h3.76l1,2.87h1.42l-3.48-9.57h-1.46Zm-.85,5.65l1.53-4.23,1.47,4.23h-3Z"/>
      <path class="cls-1" d="M213.84,31.91h.51c0,.68-.2,1.09-.58,1.25v.55c.47-.16,.78-.42,.92-.78,.15-.35,.22-.82,.22-1.39v-.96h-1.07v1.34Z"/>
    </g>
  </g>
</svg>