<?xml version="1.0" encoding="UTF-8"?>
<svg id="Layer_2" data-name="Layer 2" xmlns="http://www.w3.org/2000/svg" viewBox="0 0 219.96 58.59">
  <defs>
    <style>
      .cls-1 {
        fill: #e61c28;
      }

      .cls-2 {
        fill: #fff;
      }

      .cls-3 {
        fill: #185ca7;
      }

      .cls-4 {
        fill: #6f7074;
      }
    </style>
  </defs>
  <g id="Layer_1-2" data-name="Layer 1">
    <g>
      <path class="cls-4" d="M4.64,33.95c-.58,0-1.11-.11-1.62-.34-.5-.23-.94-.54-1.33-.96-.38-.41-.68-.89-.89-1.43-.22-.54-.32-1.13-.32-1.77,0-.6,.11-1.17,.33-1.7,.22-.53,.52-1,.9-1.41,.38-.41,.83-.72,1.35-.95,.52-.23,1.08-.34,1.68-.34,.83,0,1.54,.17,2.13,.52,.59,.35,1.03,.81,1.33,1.39l-1.27,.94c-.21-.44-.52-.77-.93-1-.4-.23-.84-.35-1.31-.35-.37,0-.71,.08-1.02,.23-.31,.16-.57,.37-.8,.64-.22,.27-.39,.58-.51,.94s-.17,.73-.17,1.12c0,.42,.06,.81,.19,1.16,.13,.35,.31,.67,.54,.93,.23,.27,.51,.48,.82,.62,.31,.15,.66,.22,1.04,.22,.45,0,.88-.12,1.28-.35,.4-.23,.78-.57,1.14-1.01v1.69c-.73,.78-1.59,1.17-2.57,1.17m2.44-3.32h-1.77v-1.25h3.17v4.5h-1.41v-3.26Z"/>
      <path class="cls-4" d="M19.24,33.95c-.64,0-1.22-.12-1.74-.37-.52-.25-.97-.58-1.34-1.01-.38-.42-.67-.9-.88-1.43-.21-.53-.31-1.08-.31-1.64s.11-1.14,.33-1.67c.22-.53,.52-1,.9-1.42,.38-.42,.84-.74,1.36-.99,.53-.24,1.1-.36,1.72-.36s1.21,.13,1.73,.38c.52,.25,.97,.6,1.34,1.02,.37,.43,.66,.91,.86,1.43,.2,.53,.3,1.07,.3,1.63s-.1,1.13-.31,1.66c-.21,.53-.51,1-.89,1.42-.38,.42-.83,.74-1.36,.98-.52,.24-1.09,.36-1.71,.36m-2.54-4.44c0,.38,.06,.75,.17,1.1,.11,.35,.28,.67,.5,.94,.22,.28,.49,.49,.8,.65,.32,.16,.68,.24,1.08,.24s.79-.09,1.1-.25c.31-.17,.58-.39,.8-.67,.22-.28,.38-.6,.49-.95,.11-.35,.16-.71,.16-1.06,0-.38-.06-.74-.17-1.09-.11-.35-.28-.66-.51-.94-.22-.27-.49-.49-.8-.65-.31-.16-.67-.24-1.07-.24s-.76,.08-1.08,.25c-.32,.17-.58,.39-.8,.67-.22,.28-.38,.59-.49,.94-.11,.35-.17,.71-.17,1.07"/>
      <path class="cls-4" d="M37.44,31.64c0,.49-.13,.9-.38,1.23-.26,.33-.6,.59-1.03,.76-.43,.17-.9,.26-1.41,.26h-4.23v-8.76h4.69c.41,0,.77,.11,1.07,.33,.3,.22,.53,.5,.69,.84,.16,.34,.24,.7,.24,1.07,0,.42-.11,.82-.32,1.19-.21,.38-.53,.66-.94,.85,.5,.15,.9,.42,1.19,.8,.29,.39,.44,.87,.44,1.44m-5.35-5.06v2.21h2.27c.19,0,.36-.05,.52-.14,.16-.09,.28-.22,.38-.38,.1-.16,.14-.36,.14-.58s-.04-.43-.13-.59c-.09-.16-.2-.29-.35-.38-.14-.09-.31-.14-.49-.14h-2.34Zm3.64,4.73c0-.22-.05-.42-.14-.6-.09-.18-.21-.32-.36-.43-.15-.11-.33-.16-.52-.16h-2.62v2.32h2.53c.21,0,.39-.05,.56-.15,.17-.1,.3-.24,.4-.41,.1-.17,.15-.36,.15-.57"/>
      <rect class="cls-4" x="44.33" y="25.13" width="1.7" height="8.76"/>
      <polygon class="cls-4" points="59.49 32.4 59.49 33.89 53.41 33.89 53.41 25.13 59.38 25.13 59.38 26.62 55.11 26.62 55.11 28.73 58.79 28.73 58.79 30.11 55.11 30.11 55.11 32.4 59.49 32.4"/>
      <path class="cls-4" d="M66.38,33.89v-8.76h3.89c.4,0,.76,.08,1.1,.25,.34,.16,.64,.39,.89,.67,.25,.28,.45,.59,.58,.94,.14,.35,.2,.7,.2,1.06s-.06,.72-.19,1.06c-.13,.34-.31,.64-.55,.9-.24,.26-.52,.46-.84,.6l2,3.29h-1.88l-1.8-2.94h-1.7v2.94h-1.7Zm1.7-4.43h2.13c.21,0,.4-.06,.57-.19,.16-.13,.3-.3,.4-.51,.1-.21,.15-.45,.15-.72s-.06-.51-.17-.73c-.12-.21-.26-.38-.43-.51-.17-.12-.36-.19-.57-.19h-2.07v2.84Z"/>
      <polygon class="cls-4" points="81.84 28.26 81.84 33.89 80.14 33.89 80.14 25.13 81.51 25.13 86.03 30.9 86.03 25.14 87.72 25.14 87.72 33.89 86.31 33.89 81.84 28.26"/>
      <path class="cls-4" d="M98.85,33.95c-.64,0-1.22-.12-1.74-.37-.52-.25-.97-.58-1.34-1.01-.38-.42-.67-.9-.88-1.43-.21-.53-.31-1.08-.31-1.64s.11-1.14,.33-1.67c.22-.53,.52-1,.9-1.42,.38-.42,.84-.74,1.36-.99,.53-.24,1.1-.36,1.72-.36s1.21,.13,1.73,.38c.52,.25,.97,.6,1.34,1.02,.37,.43,.66,.91,.86,1.43,.2,.53,.3,1.07,.3,1.63s-.1,1.13-.31,1.66c-.21,.53-.51,1-.89,1.42-.38,.42-.83,.74-1.36,.98-.52,.24-1.09,.36-1.71,.36m-2.54-4.44c0,.38,.06,.75,.17,1.1,.11,.35,.28,.67,.5,.94,.22,.28,.49,.49,.8,.65,.32,.16,.68,.24,1.08,.24s.79-.09,1.1-.25c.31-.17,.58-.39,.8-.67,.22-.28,.38-.6,.49-.95,.11-.35,.16-.71,.16-1.06,0-.38-.06-.74-.17-1.09-.11-.35-.28-.66-.51-.94-.22-.27-.49-.49-.8-.65-.31-.16-.67-.24-1.07-.24s-.76,.08-1.08,.25c-.32,.17-.58,.39-.8,.67-.22,.28-.38,.59-.49,.94-.11,.35-.17,.71-.17,1.07"/>
      <polygon class="cls-4" points="120.21 28.26 120.21 33.89 118.51 33.89 118.51 25.13 119.88 25.13 124.39 30.9 124.39 25.14 126.08 25.14 126.08 33.89 124.68 33.89 120.21 28.26"/>
      <path class="cls-4" d="M135.86,25.13h1.73l3.22,8.76h-1.75l-.73-2.18h-3.22l-.73,2.18h-1.75l3.23-8.76Zm2.07,5.38l-1.21-3.62-1.21,3.62h2.42Z"/>
      <path class="cls-4" d="M146.46,29.43c0-.54,.1-1.07,.29-1.59,.19-.51,.48-.98,.85-1.4,.38-.42,.83-.75,1.36-1,.54-.25,1.14-.38,1.81-.38,.81,0,1.5,.18,2.09,.53,.59,.35,1.02,.81,1.3,1.38l-1.3,.9c-.15-.33-.34-.59-.58-.78-.24-.19-.49-.32-.77-.41-.28-.08-.54-.12-.8-.12-.43,0-.8,.09-1.12,.26-.32,.17-.58,.4-.79,.68-.21,.28-.37,.59-.47,.94-.11,.35-.16,.69-.16,1.05,0,.38,.06,.75,.19,1.1,.12,.36,.3,.68,.53,.95,.23,.28,.5,.49,.81,.66,.32,.16,.66,.24,1.04,.24,.26,0,.53-.04,.81-.14,.28-.09,.54-.23,.78-.43,.24-.2,.43-.46,.58-.78l1.38,.81c-.18,.44-.47,.81-.86,1.11-.39,.31-.83,.54-1.31,.69-.48,.16-.96,.23-1.44,.23-.62,0-1.2-.13-1.71-.39-.51-.26-.96-.6-1.34-1.04-.38-.43-.67-.92-.88-1.46s-.31-1.08-.31-1.64"/>
      <rect class="cls-4" x="161.01" y="25.13" width="1.7" height="8.76"/>
      <path class="cls-4" d="M173.83,33.95c-.64,0-1.22-.12-1.74-.37-.52-.25-.97-.58-1.34-1.01-.38-.42-.67-.9-.88-1.43-.21-.53-.31-1.08-.31-1.64s.11-1.14,.33-1.67c.22-.53,.52-1,.9-1.42,.38-.42,.84-.74,1.36-.99,.53-.24,1.1-.36,1.72-.36s1.21,.13,1.73,.38c.52,.25,.97,.6,1.34,1.02,.37,.43,.66,.91,.86,1.43,.2,.53,.3,1.07,.3,1.63s-.1,1.13-.31,1.66c-.21,.53-.51,1-.89,1.42-.38,.42-.83,.74-1.36,.98-.52,.24-1.09,.36-1.71,.36m-2.54-4.44c0,.38,.06,.75,.17,1.1,.11,.35,.28,.67,.5,.94,.22,.28,.49,.49,.8,.65,.32,.16,.68,.24,1.08,.24s.79-.09,1.1-.25c.31-.17,.58-.39,.8-.67,.22-.28,.38-.6,.49-.95,.11-.35,.16-.71,.16-1.06,0-.38-.06-.74-.17-1.09-.11-.35-.28-.66-.51-.94-.22-.27-.49-.49-.8-.65-.31-.16-.67-.24-1.07-.24s-.76,.08-1.08,.25c-.32,.17-.58,.39-.8,.67-.22,.28-.38,.59-.49,.94-.11,.35-.17,.71-.17,1.07"/>
      <polygon class="cls-4" points="186.68 28.26 186.68 33.89 184.97 33.89 184.97 25.13 186.34 25.13 190.86 30.9 190.86 25.14 192.55 25.14 192.55 33.89 191.14 33.89 186.68 28.26"/>
      <path class="cls-4" d="M202.33,25.13h1.73l3.22,8.76h-1.75l-.73-2.18h-3.22l-.73,2.18h-1.75l3.23-8.76Zm2.07,5.38l-1.21-3.62-1.21,3.62h2.42Z"/>
      <polygon class="cls-4" points="213.79 33.89 213.79 25.13 215.49 25.13 215.49 32.4 219.96 32.4 219.96 33.89 213.79 33.89"/>
      <path class="cls-3" d="M16.46,50.21c0-.97,.18-1.94,.54-2.89,.36-.95,.89-1.82,1.6-2.6,.71-.78,1.57-1.41,2.57-1.87s2.14-.7,3.4-.7c1.52,0,2.84,.33,3.96,.98,1.12,.65,1.96,1.51,2.52,2.56l-2.9,2.03c-.23-.58-.54-1.03-.95-1.36-.4-.33-.85-.56-1.32-.69-.48-.13-.95-.19-1.41-.19-.7,0-1.32,.14-1.85,.42-.53,.28-.98,.66-1.33,1.13-.35,.47-.61,1-.79,1.58-.18,.58-.26,1.15-.26,1.71,0,.65,.1,1.28,.31,1.87,.2,.59,.49,1.12,.87,1.58,.37,.46,.82,.82,1.35,1.08,.53,.27,1.12,.4,1.77,.4,.46,0,.92-.07,1.39-.22,.47-.15,.91-.38,1.31-.72,.4-.33,.71-.78,.92-1.33l3.08,1.83c-.33,.79-.87,1.47-1.6,2.03-.73,.56-1.55,.99-2.47,1.29-.91,.3-1.83,.45-2.74,.45-1.17,0-2.25-.24-3.22-.72-.97-.48-1.82-1.12-2.54-1.92-.72-.8-1.27-1.7-1.66-2.69-.39-1-.58-2.01-.58-3.05"/>
      <path class="cls-3" d="M39.97,58.59c-1.19,0-2.27-.23-3.25-.7-.98-.46-1.83-1.09-2.55-1.87-.72-.78-1.26-1.67-1.65-2.65-.38-.98-.57-2-.57-3.05s.2-2.11,.6-3.08c.4-.97,.97-1.85,1.69-2.61s1.58-1.37,2.57-1.82c.99-.44,2.07-.66,3.24-.66s2.3,.23,3.28,.7c.98,.47,1.83,1.09,2.54,1.88,.71,.79,1.25,1.68,1.63,2.66,.38,.98,.57,1.98,.57,3,0,1.08-.2,2.11-.59,3.08-.4,.97-.96,1.85-1.69,2.62-.73,.77-1.59,1.38-2.57,1.83-.98,.45-2.07,.67-3.26,.67m-4.22-8.22c0,.62,.09,1.23,.29,1.82,.19,.59,.46,1.11,.82,1.56,.36,.46,.8,.82,1.33,1.1,.52,.27,1.14,.41,1.86,.41s1.32-.14,1.85-.42c.53-.28,.97-.66,1.33-1.14,.35-.48,.61-1.01,.79-1.59,.17-.58,.26-1.17,.26-1.78s-.09-1.23-.29-1.8c-.19-.58-.46-1.1-.82-1.56-.36-.46-.8-.83-1.34-1.09-.53-.26-1.14-.39-1.8-.39-.72,0-1.34,.14-1.87,.41-.53,.27-.97,.65-1.32,1.12-.35,.47-.62,.99-.8,1.56-.18,.57-.27,1.17-.27,1.79"/>
      <polygon class="cls-3" points="53.99 49.18 53.99 58.48 50.24 58.48 50.24 42.26 53.21 42.26 60.73 51.81 60.73 42.26 64.45 42.26 64.45 58.48 61.41 58.48 53.99 49.18"/>
      <path class="cls-3" d="M72.9,58.48v-16.22h6.92c.78,0,1.48,.16,2.12,.48,.64,.32,1.2,.74,1.68,1.26,.48,.52,.85,1.1,1.11,1.76,.26,.65,.39,1.32,.39,2.01,0,.91-.22,1.79-.65,2.64-.43,.85-1.04,1.53-1.81,2.06-.77,.52-1.67,.79-2.71,.79h-3.31v5.23h-3.75Zm3.75-8.52h3.06c.29,0,.55-.08,.79-.24,.24-.16,.43-.41,.58-.74s.23-.74,.23-1.21c0-.52-.08-.94-.25-1.27-.17-.33-.39-.57-.65-.72-.27-.15-.54-.23-.83-.23h-2.92v4.41Z"/>
      <path class="cls-3" d="M90.03,42.26h4.02l5.62,16.22h-3.84l-1.1-3.63h-5.35l-1.11,3.63h-3.84l5.6-16.22Zm3.93,10.03l-1.9-6.26-1.91,6.26h3.8Z"/>
      <path class="cls-3" d="M110.77,47.01s-.21-.16-.49-.33c-.28-.18-.62-.35-1.03-.54-.4-.18-.85-.34-1.34-.47-.49-.13-.97-.19-1.46-.19-.64,0-1.13,.11-1.48,.34-.35,.23-.53,.56-.53,1,0,.35,.13,.63,.4,.85,.27,.22,.65,.41,1.15,.57,.5,.16,1.12,.34,1.85,.53,1.04,.29,1.93,.62,2.7,1.01,.76,.39,1.34,.88,1.75,1.48,.4,.6,.6,1.4,.6,2.4,0,.89-.16,1.66-.49,2.3-.33,.64-.78,1.15-1.37,1.54-.59,.38-1.24,.66-1.96,.84-.72,.17-1.47,.26-2.25,.26s-1.6-.08-2.43-.25c-.83-.17-1.62-.4-2.39-.71-.76-.3-1.46-.65-2.1-1.05l1.62-3.29c.08,.09,.28,.24,.62,.43,.33,.2,.75,.41,1.24,.63,.49,.22,1.05,.42,1.66,.59,.61,.18,1.22,.26,1.83,.26,.69,0,1.19-.11,1.52-.32,.33-.22,.49-.51,.49-.88,0-.39-.17-.71-.51-.94-.34-.23-.81-.45-1.39-.63-.59-.19-1.26-.39-2.02-.6-.99-.32-1.81-.66-2.45-1.03-.65-.37-1.13-.83-1.44-1.37-.31-.55-.47-1.22-.47-2.02,0-1.15,.27-2.11,.81-2.89,.54-.78,1.27-1.37,2.18-1.77,.91-.4,1.91-.6,2.99-.6,.78,0,1.51,.09,2.22,.27,.7,.18,1.36,.41,1.99,.69,.62,.27,1.16,.56,1.62,.85l-1.62,3.06Z"/>
      <path class="cls-3" d="M122.17,58.59c-1.19,0-2.27-.23-3.26-.7-.98-.46-1.83-1.09-2.55-1.87-.72-.78-1.26-1.67-1.64-2.65-.38-.98-.57-2-.57-3.05s.2-2.11,.6-3.08c.4-.97,.97-1.85,1.69-2.61s1.58-1.37,2.57-1.82c.99-.44,2.07-.66,3.24-.66s2.3,.23,3.28,.7c.98,.47,1.83,1.09,2.54,1.88,.71,.79,1.25,1.68,1.63,2.66,.38,.98,.57,1.98,.57,3,0,1.08-.2,2.11-.59,3.08-.4,.97-.96,1.85-1.69,2.62-.73,.77-1.59,1.38-2.57,1.83-.98,.45-2.07,.67-3.25,.67m-4.23-8.22c0,.62,.09,1.23,.29,1.82,.19,.59,.46,1.11,.82,1.56,.36,.46,.8,.82,1.33,1.1,.52,.27,1.14,.41,1.86,.41s1.32-.14,1.85-.42c.53-.28,.97-.66,1.33-1.14,.35-.48,.61-1.01,.79-1.59,.17-.58,.26-1.17,.26-1.78s-.09-1.23-.29-1.8c-.19-.58-.46-1.1-.82-1.56-.36-.46-.8-.83-1.34-1.09-.53-.26-1.14-.39-1.8-.39-.72,0-1.34,.14-1.87,.41-.53,.27-.97,.65-1.32,1.12-.35,.47-.62,.99-.8,1.56-.18,.57-.27,1.17-.27,1.79"/>
      <polygon class="cls-3" points="137.77 58.48 137.77 42.26 148.75 42.26 148.75 45.55 141.51 45.55 141.51 49.02 147.5 49.02 147.5 52.11 141.51 52.11 141.51 58.48 137.77 58.48"/>
      <rect class="cls-3" x="150.76" y="42.26" width="3.75" height="16.22"/>
      <path class="cls-3" d="M157.61,58.48v-16.22h7.29c.78,0,1.49,.16,2.15,.48,.66,.32,1.21,.74,1.68,1.26,.46,.52,.83,1.1,1.1,1.76,.27,.65,.4,1.32,.4,2.01s-.11,1.29-.33,1.9c-.22,.61-.53,1.15-.92,1.62s-.86,.86-1.39,1.17l3.56,6.03h-4.13l-3.11-5.23h-2.53v5.23h-3.75Zm3.75-8.52h3.45c.29,0,.55-.09,.79-.27,.24-.18,.43-.44,.58-.78,.15-.33,.23-.71,.23-1.14,0-.46-.09-.85-.26-1.18-.17-.33-.4-.58-.66-.77-.27-.18-.54-.27-.81-.27h-3.31v4.41Z"/>
      <polygon class="cls-3" points="185.71 58.48 185.71 48.8 182.19 55.83 180.16 55.83 176.66 48.8 176.66 58.48 172.92 58.48 172.92 42.26 176.98 42.26 181.19 50.74 185.39 42.26 189.45 42.26 189.45 58.48 185.71 58.48"/>
      <polygon class="cls-3" points="203.96 55.19 203.96 58.48 192.56 58.48 192.56 42.26 203.75 42.26 203.75 45.55 196.31 45.55 196.31 48.7 202.7 48.7 202.7 51.74 196.31 51.74 196.31 55.19 203.96 55.19"/>
      <polygon class="cls-1" points="5.51 44.96 6.8 48.96 11.01 48.96 7.61 51.43 8.91 55.43 5.51 52.96 2.1 55.43 3.4 51.43 0 48.96 4.2 48.96 5.51 44.96"/>
      <polygon class="cls-1" points="214.22 44.97 215.52 48.97 219.73 48.97 216.33 51.44 217.63 55.44 214.22 52.97 210.82 55.44 212.12 51.44 208.72 48.97 212.92 48.97 214.22 44.97"/>
      <rect class="cls-2" x="97.82" width="12.44" height="8.83"/>
      <rect class="cls-2" x="110.27" y="8.83" width="12.44" height="8.83"/>
      <polygon class="cls-1" points="116.49 11.24 116.99 12.77 118.6 12.77 117.29 13.72 117.79 15.25 116.49 14.31 115.18 15.25 115.68 13.72 114.38 12.77 115.99 12.77 116.49 11.24"/>
      <polygon class="cls-3" points="104.04 2.41 104.54 3.94 106.15 3.94 104.85 4.89 105.35 6.42 104.04 5.48 102.74 6.42 103.24 4.89 101.93 3.94 103.55 3.94 104.04 2.41"/>
      <rect class="cls-1" x="110.27" width="12.44" height="8.83"/>
      <rect class="cls-3" x="97.82" y="8.83" width="12.44" height="8.83"/>
    </g>
  </g>
</svg>